<svg width="51" height="44" viewBox="0 0 51 44" fill="none" xmlns="http://www.w3.org/2000/svg">
<path d="M25.5 44C22.2659 44 19.7366 43.0949 17.9122 41.2847C16.0878 39.4745 15.1756 37.1912 15.1756 34.4348C15.1756 32.8714 15.4037 31.4315 15.8598 30.115C16.3573 28.7985 17.0415 27.3791 17.9122 25.8569L21.2085 19.9944L14.989 9.19495L8.39634 43.1978H0L8.08537 0H18.4098L25.5 12.4656L32.5902 0H42.9146L51 43.1978H42.6037L36.011 9.19495L29.7915 19.9944L33.0878 25.8569C33.9585 27.3791 34.6219 28.7985 35.078 30.115C35.5756 31.4315 35.8244 32.8714 35.8244 34.4348C35.8244 37.1912 34.9122 39.4745 33.0878 41.2847C31.2634 43.0949 28.7341 44 25.5 44ZM22.5768 33.6942C22.5768 34.5582 22.8049 35.3399 23.261 36.0393C23.7171 36.7387 24.4634 37.0884 25.5 37.0884C26.5366 37.0884 27.2829 36.7387 27.739 36.0393C28.1951 35.3399 28.4232 34.5582 28.4232 33.6942C28.4232 33.1183 28.2573 32.5012 27.9256 31.8429C27.6354 31.1435 27.2415 30.3824 26.7439 29.5596L25.5 27.3997L24.2561 29.5596C23.7585 30.3824 23.3439 31.1435 23.0122 31.8429C22.7219 32.5012 22.5768 33.1183 22.5768 33.6942Z" fill="white"/>
</svg>
