<svg width="52" height="52" viewBox="0 0 52 52" fill="none" xmlns="http://www.w3.org/2000/svg">
<path d="M25.875 49C22.5933 49 20.0268 48.0743 18.1756 46.223C16.3244 44.3717 15.3988 42.0365 15.3988 39.2174C15.3988 37.6185 15.6302 36.1459 16.093 34.7994C16.5979 33.453 17.2921 32.0014 18.1756 30.4446L21.5204 24.4488L15.2094 13.4039L8.51982 48.1795H0L8.20427 4H18.6805L25.875 16.7489L33.0695 4H43.5457L51.75 48.1795H43.2302L36.5406 13.4039L30.2296 24.4488L33.5744 30.4446C34.4579 32.0014 35.1311 33.453 35.5939 34.7994C36.0988 36.1459 36.3512 37.6185 36.3512 39.2174C36.3512 42.0365 35.4256 44.3717 33.5744 46.223C31.7232 48.0743 29.1567 49 25.875 49ZM22.9088 38.46C22.9088 39.3436 23.1402 40.1431 23.603 40.8583C24.0659 41.5736 24.8232 41.9313 25.875 41.9313C26.9268 41.9313 27.6841 41.5736 28.1469 40.8583C28.6098 40.1431 28.8412 39.3436 28.8412 38.46C28.8412 37.871 28.6729 37.2398 28.3363 36.5666C28.0418 35.8513 27.6421 35.0729 27.1372 34.2314L25.875 32.0224L24.6128 34.2314C24.1079 35.0729 23.6872 35.8513 23.3506 36.5666C23.0561 37.2398 22.9088 37.871 22.9088 38.46Z" fill="white"/>
</svg>
