<svg width="1100" height="258" viewBox="0 0 1100 258" fill="none" xmlns="http://www.w3.org/2000/svg">
<path d="M17.5456 0.702932C10.304 0.702932 4.62076 3.8847 2.05412 9.2189C-1.06252 14.5531 -0.558356 21.4782 3.06244 27.3271L10.854 41.1773C14.979 48.6639 20.6623 49.6933 24.7872 50.7695C28.4539 51.331 31.0205 51.8457 33.5872 57.1799L40.8288 69.9539C46.5579 80.6223 52.7453 81.6517 57.4203 82.7279C61.0411 83.2894 64.6619 83.8041 69.291 92.3201C73.966 100.836 80.7034 113.657 97.7532 118.944C99.3116 119.506 262.798 168.496 263.348 168.496C280.443 174.392 285.072 180.756 290.251 188.757C293.368 193.53 302.168 206.35 322.839 212.199L480.137 255.856C485.811 257.633 491.855 257.778 497.604 256.276C503.353 254.773 508.585 251.681 512.724 247.34L541.187 219.639C545.357 215.896 547.42 214.305 549.987 214.305C552.599 214.305 554.662 215.896 558.787 219.639L587.249 247.34C592.428 251.598 602.786 260.114 619.882 255.856L777.134 212.199C798.355 206.35 806.651 193.53 809.722 188.757C814.901 180.756 819.576 173.83 836.626 168.496C836.626 168.496 1000.16 119.506 1002.22 118.944C1018.77 113.657 1026.05 100.836 1030.68 92.3201C1035.36 83.8041 1038.43 83.2894 1042.05 82.7279C1046.72 81.6517 1053.46 80.6223 1059.14 69.9539L1066.39 57.1799C1069.5 51.8457 1071.57 51.331 1075.19 50.7695C1079.31 49.6933 1084.99 48.6171 1089.16 41.1773L1096.91 27.3271C1100.53 20.9635 1101.08 14.5531 1097.96 9.2189C1096.33 6.53616 1094.04 4.33794 1091.31 2.84362C1088.58 1.34929 1085.52 0.611187 1082.43 0.702932H638.994C631.753 0.702932 620.386 0.702936 608.469 12.9622C605.33 16.2532 602.716 20.0268 600.724 24.1453C597.103 31.0704 594.49 35.8431 582.07 35.8431H517.399C505.483 35.8431 502.412 31.0704 498.791 24.1453C496.737 20.0529 494.112 16.286 491 12.9622C479.129 0.702936 467.717 0.702932 460.475 0.702932H17.5456ZM17.5915 11.886H461.025C467.717 11.886 475.508 11.886 483.804 20.9167C488.937 26.2509 490.495 32.1466 495.17 37.9955H37.208C23.7789 37.9955 22.2206 37.9955 18.0956 31.5851L12.4124 21.4782C10.854 18.8111 10.3499 16.144 11.3582 14.5531C12.4124 12.9622 14.4748 11.886 17.5915 11.886ZM639.498 11.886H1082.93C1086.05 11.886 1088.11 12.9622 1089.16 14.5531C1089.47 15.719 1089.53 16.9366 1089.35 18.1288C1089.17 19.321 1088.75 20.4615 1088.11 21.4782L1082.43 31.5851C1078.3 37.9955 1076.74 37.9955 1063.27 37.9955H605.353C610.028 32.1466 611.586 26.2509 616.719 20.9167C625.519 11.886 632.807 11.886 639.498 11.886ZM304.735 46.5116H795.238V126.431H304.735V46.5116ZM804.038 47.5877H1059.14C1058.09 49.1786 1057.59 50.2548 1056.58 51.331C1056.58 51.331 1052.45 58.2561 1050.89 61.9527C1044.66 72.1064 1041.54 72.0595 1023.99 70.4686L804.038 57.1799V47.5877ZM41.3329 48.1024H296.439V57.6946L76.5326 71.0301C58.9786 72.0595 55.862 72.6211 49.6287 62.5142L43.9454 51.8457C42.8912 50.2548 41.8829 49.1786 41.3329 48.1024ZM378.388 62.6545C374.733 62.6201 371.181 63.895 368.351 66.2575C367.074 67.4871 366.052 68.9651 365.343 70.6045C364.635 72.2438 364.255 74.0113 364.226 75.8028C364.226 81.6985 367.297 85.9565 373.53 89.1383C380.267 92.3201 383.338 93.3963 384.896 95.5487C385.416 96.0886 385.818 96.7342 386.076 97.4434C386.334 98.1525 386.443 98.9094 386.396 99.6644C386.348 100.419 386.145 101.156 385.8 101.825C385.455 102.495 384.975 103.083 384.392 103.55C382.524 104.68 380.375 105.233 378.205 105.141C373.167 104.927 368.377 102.848 364.73 99.292L365.234 107.808C369.13 109.82 373.347 111.083 377.655 111.505C381.91 111.593 386.084 110.299 389.571 107.808C395.255 103.55 395.255 94.4725 391.634 90.2145C389.067 86.4712 384.896 84.8803 377.151 80.6223C373.53 78.5167 371.972 76.8791 371.972 74.212C371.972 68.9246 378.709 67.3336 384.896 69.4392C386.947 70.1801 388.866 71.2545 390.58 72.621L390.076 64.6197C388.364 64.0398 386.637 63.5093 384.896 63.0288C384.392 63.0288 381.688 62.5141 378.388 62.6545ZM395.255 63.0288L394.751 69.9539C400.434 69.3924 404.559 68.8777 408.18 68.8777V109.352H416.979V68.8777C419.088 68.8777 423.213 68.8777 430.454 69.9539L429.95 63.0288H395.255ZM453.187 63.0288C439.758 63.0288 430.454 72.621 430.454 86.986C430.454 100.836 439.758 110.99 453.187 110.99C466.662 110.99 475.966 100.836 475.966 86.986C475.966 72.621 466.662 63.0288 453.187 63.0288ZM680.381 63.0288L679.831 69.9539C685.515 69.3924 689.685 68.8777 693.306 68.8777V109.914V109.352H702.106V68.8777C704.169 68.8777 708.294 68.8777 715.535 69.9539L715.031 63.0288H680.381ZM657.098 63.5435C652.423 63.5435 649.307 63.5436 646.74 64.0583V110.428H655.54V90.7293H658.611L672.59 110.428H682.948L666.906 89.6531C669.74 88.8258 672.263 87.1463 674.148 84.8335C675.704 82.4705 676.607 79.7223 676.76 76.879C676.76 69.9539 671.581 66.7254 667.411 65.1345C664.099 63.9592 660.602 63.4198 657.098 63.5435ZM339.384 63.5435L320.226 109.914H327.972L332.647 98.169H349.743L353.868 109.914H363.722L344.563 63.5435H339.384ZM483.208 63.5435V109.914H489.441V78.4699L516.345 109.914H521.02V63.5435H514.787V94.9872L487.883 63.5435H483.208ZM550.491 63.5435L545.403 109.352H552.553L555.166 81.1371L568.091 107.761H572.216L584.636 81.1371L587.203 109.914H596.553L591.374 63.5435H586.699L571.207 96.0634L555.166 63.5435H550.491ZM545.403 109.352H545.312V109.914L545.403 109.352ZM618.782 63.5435L599.669 109.914H607.415L612.044 98.169H629.14L633.265 109.914H643.119L623.961 63.5435H618.782ZM721.218 63.5435V109.914H730.018V63.5435H721.218ZM738.818 63.5435V109.914H745.051V78.4699L771.955 109.914H776.63V63.5435H770.397V94.9872L743.493 63.5435H738.818ZM296.439 67.8016V79.5461L113.795 100.836C94.1324 102.989 90.0075 103.503 83.82 94.4257C82.1376 92.0294 80.5772 89.5462 79.1451 86.986C78.0909 84.8336 77.0826 82.728 75.5243 81.1371C79.6492 80.5756 84.3242 80.5756 85.8825 80.5756L296.439 67.8016ZM803.534 67.8016L1014.14 80.5756C1015.69 80.5756 1019.82 81.1371 1024.49 81.1371C1023.44 82.728 1021.88 84.8804 1020.87 86.986C1019.44 89.5462 1017.88 92.0294 1016.2 94.4257C1010.01 103.503 1005.84 102.989 986.178 100.836L803.534 79.5461V67.8016ZM453.187 67.8016C456.304 67.8016 458.412 68.3162 460.475 69.9539C466.662 75.2881 466.662 85.3951 466.662 86.4245C466.662 99.2453 460.429 105.094 453.187 105.094C446.496 105.094 440.263 99.2452 439.758 86.4712C439.758 76.879 443.883 67.8016 453.187 67.8016ZM655.54 68.8777H658.611C663.79 68.8777 667.961 71.0301 667.961 76.879C667.961 80.6223 665.852 84.8803 658.611 84.8803C657.602 84.8803 656.044 84.3189 655.036 84.3189H655.54V68.8777ZM339.888 75.2413L346.626 92.8349H333.701L339.888 75.2413ZM619.286 75.2882L626.023 92.8349H613.099L619.286 75.2882ZM804.588 90.1678L989.295 111.458L951.529 122.688C941.17 125.308 931.866 124.279 917.383 121.611L804.588 102.427V90.1678ZM296.439 90.1678V102.427L183.644 121.611C168.657 124.279 159.307 125.355 149.499 122.688L111.732 111.505L296.439 90.1678ZM296.439 112.534V128.022L254.043 139.158C241.073 142.387 233.327 143.978 227.14 143.978C218.34 143.978 213.161 141.872 181.582 132.28L296.439 112.534ZM803.534 112.534L918.392 132.28C886.858 141.872 881.679 143.978 872.879 143.978C866.692 143.978 858.9 142.901 845.976 139.205L803.534 127.975V112.534ZM370.459 134.947H405.659C384.438 150.903 352.355 174.86 338.376 185.014C331.998 190.145 324.212 193.122 316.101 193.53C307.851 193.53 304.23 189.786 299.556 182.346C296.989 179.165 294.376 175.421 291.306 172.193C293.368 171.678 295.431 171.678 297.493 170.602C309.914 166.905 328.018 157.313 370.459 134.947ZM422.709 134.947H452.179C432.486 156.903 412.485 178.569 392.184 199.94C387.005 205.227 379.763 212.714 368.901 212.714C364.776 212.714 365.28 212.714 327.514 202.046C334.755 199.94 340.943 195.635 344.059 193.53C361.155 181.785 404.1 149.312 422.709 134.947ZM465.654 134.947H492.558C477.571 161.01 457.358 195.635 448.604 210.047C444.433 216.972 437.192 227.64 423.763 227.64C418.584 228.155 418.034 227.594 385.446 218.563C392.184 214.82 396.813 210.047 398.921 207.38C421.501 183.56 443.748 159.413 465.654 134.947ZM503.97 134.947H528.262C519.142 164.889 509.654 194.713 499.8 224.412C496.729 232.928 492.558 243.596 480.641 243.596C476.516 244.111 477.571 244.158 440.308 233.489C449.613 227.64 455.296 218.563 456.854 215.381C467.212 198.864 491 157.828 503.97 134.947ZM648.298 134.947H677.815C703.68 154.96 729.901 174.491 756.464 193.53C759.58 195.635 765.768 199.378 773.009 202.046C734.785 212.714 735.747 212.714 731.622 212.714C721.264 212.714 713.518 205.227 708.339 199.94C688.021 178.571 668.006 156.904 648.298 134.947ZM751.789 134.947H790.105L843.913 148.797C847.534 149.827 851.155 150.388 854.225 151.417C823.701 161.01 819.072 162.086 813.892 162.086C804.084 162.086 791.114 155.161 751.789 134.947ZM310.418 135.462H348.734C309.41 155.675 296.439 162.647 286.631 162.647C280.947 162.086 276.272 161.01 246.298 151.979C249.369 151.464 252.989 150.388 256.61 149.312L310.418 135.462ZM539.124 135.462H561.399C567.082 154.085 587.249 219.078 590.87 228.67C592.177 233.29 594.289 237.633 597.103 241.491C596.553 240.929 595.545 240.414 594.995 239.853L566.578 212.153C561.903 207.895 557.228 203.637 550.537 203.637C543.799 203.637 538.62 207.895 534.449 212.153L506.033 239.853C504.979 240.414 503.97 240.929 503.42 241.491C505.483 238.824 507.041 235.08 509.654 228.67C513.274 219.078 533.441 153.57 539.124 135.462ZM571.711 135.462H596.049C611.449 162.46 627.123 189.272 643.119 215.896C645.227 219.124 650.361 228.155 659.711 234.004C622.448 244.111 623.457 244.111 619.332 244.111C607.461 244.111 603.29 233.489 600.174 224.973C596.553 215.381 577.44 152.494 571.711 135.462ZM607.965 135.462H634.869C651.919 154.131 687.623 192.968 701.602 207.895C703.664 210.047 708.339 214.82 715.077 219.078C681.94 227.594 681.94 228.155 676.76 228.155C663.331 228.155 656.09 217.487 651.919 210.562C637.029 185.675 622.377 160.64 607.965 135.462ZM694.864 135.462H730.064C773.01 157.313 791.114 167.42 803.03 171.163L809.218 172.754C805.597 175.421 803.534 179.118 800.968 182.861C796.293 190.348 792.672 194.044 784.422 194.044C776.63 194.044 768.885 190.348 762.147 185.528C739.524 169.115 717.095 152.424 694.864 135.462Z" fill="white"/>
</svg>
