<svg width="360" height="500" viewBox="0 0 360 500" fill="none" xmlns="http://www.w3.org/2000/svg">
<path d="M170.651 0C170.651 0 170.443 2.93752 169.547 4.72919C168.88 6.2917 167.089 7.39588 167.318 8.52088C167.526 9.64589 168.651 11.0001 170.443 11.8959C172.235 12.7917 172.88 13.4376 174.672 13.8959C176.235 14.3334 178.505 15.4793 178.943 14.1251C179.63 12.7917 178.735 10.9792 177.61 9.41672C175.818 6.50004 174.901 5.83337 172.443 1.81251C171.985 0.916672 171.547 0 170.651 0ZM184.776 0C184.318 0.229168 183.651 3.62502 182.526 6.52087C181.193 9.87506 182.068 11.4376 182.735 12.7709C183.631 14.1251 184.776 15.0209 182.526 16.3751C180.297 17.7084 177.36 17.2709 177.36 17.2709C177.36 17.2709 174.901 16.7918 172.88 15.6876C170.803 14.7705 168.72 13.8677 166.63 12.9792C166.63 12.9792 162.589 11.8751 159.901 12.1042C157.214 12.3126 156.985 12.5626 154.985 12.7917C153.86 12.7917 153.422 12.7709 152.297 13.0001C151.401 13.2084 150.297 12.5834 150.297 13.6876C150.297 14.7918 152.526 14.8126 154.089 15.4793C155.651 16.1459 159.235 16.1251 158.568 17.0209C157.672 17.9168 154.318 18.1459 154.089 17.9168C153.88 17.9168 151.651 17.4793 149.859 17.4793C146.943 17.6876 146.734 17.6876 142.505 19.7084C141.818 19.9168 142.047 21.5001 143.38 21.0418C145.42 20.4595 147.53 20.1581 149.651 20.1459C152.359 20.1459 153.88 21.0626 156.568 21.7501C158.818 22.4168 159.026 22.8335 162.401 23.2918C163.068 23.2918 164.38 22.8335 164.38 23.7293C164.38 24.1876 163.485 24.8751 163.485 24.8751C163.485 24.8751 161.485 25.2918 161.693 25.9793C162.151 26.8752 163.943 25.9793 164.818 25.9793C165.735 25.9793 167.11 26.2293 166.86 27.1043L166.422 27.771C164.359 28.3097 162.333 28.9848 160.36 29.7918C154.755 32.0418 152.547 34.7294 147.172 37.4169C142.026 39.8752 133.755 42.9794 133.755 42.9794C133.755 42.9794 131.297 44.3336 127.714 45.2086C124.151 46.1253 123.922 45.9169 121.463 46.3544C119.468 46.4695 117.533 47.0857 115.838 48.1461C114.656 48.7595 113.596 49.5859 112.713 50.5836L109.588 55.3128L107.776 57.9587C107.338 58.8545 106.901 59.292 106.693 60.1878C106.234 61.3128 106.005 61.7712 105.797 62.8962C105.13 65.5629 105.797 67.1462 106.234 69.8337C106.463 70.5004 106.463 70.9587 106.693 71.6254C106.901 72.2921 107.776 72.9796 107.776 72.9796L108.672 73.1879C108.672 73.1879 111.838 72.9796 113.838 72.5212C115.859 72.0837 118.776 71.3754 118.776 71.3754L122.547 70.2921L125.047 69.3962C125.047 69.3962 126.609 69.3962 126.839 70.2921C127.047 70.9587 126.38 72.0837 126.38 72.0837C126.38 72.0837 125.026 72.7087 123.901 73.1671C122.776 73.6254 120.088 74.2921 119.88 74.5213L116.963 75.4171L114.505 75.6463C114.505 75.6463 114.047 75.8754 113.609 76.5421C113.151 77.2296 113.151 77.2088 113.151 77.6463C113.609 78.1046 113.838 78.5421 114.297 79.0005C115.193 79.6671 115.63 80.1046 116.734 80.3338C118.297 81.0005 119.193 80.7921 120.755 80.7921C122.711 80.7972 124.64 80.3328 126.38 79.438C128.172 78.3129 128.839 78.3338 131.297 77.4379C132.098 77.2018 132.922 77.0551 133.755 77.0004C138.005 76.5421 140.422 77.2088 144.693 77.8963C148.943 78.563 150.984 79.9171 155.235 80.5838C159.714 81.2505 162.38 82.5838 167.068 81.4796C169.318 81.0213 170.672 79.8963 171.797 82.1255C172.901 84.1463 172.693 85.2505 172.693 85.2505C172.693 85.2505 172.672 86.6255 171.11 90.8755C169.526 95.1255 164.63 105.646 164.63 105.646L161.255 112.355C161.255 112.355 158.547 117.709 152.297 124.647C150.086 127.108 147.863 129.559 145.63 132.001C145.63 132.001 142.276 134.48 138.922 138.73C135.568 142.98 135.526 144.542 132.401 147.688C130.38 149.688 129.276 150.813 126.818 152.397C124.359 153.959 121.443 153.501 113.609 158.855C106.901 163.563 103.318 167.397 102.859 167.168C102.422 166.959 100.172 165.126 99.2758 164.668C98.6092 164.251 85.6508 155.522 85.6508 155.522L80.2757 151.938L77.7966 150.355L77.3591 149.459L76.0465 147.668C76.0465 147.668 74.0257 145.209 71.5674 143.209C69.0202 140.746 65.8399 139.037 62.3798 138.272C58.5673 137.167 56.1298 136.48 52.3381 137.834C50.1921 138.538 48.2577 139.77 46.713 141.417C44.4839 143.647 44.0255 145.438 42.2339 148.126C40.4422 150.813 38.6505 153.293 37.7547 154.626C36.8588 155.98 35.0671 159.563 35.0671 159.563C35.0671 159.563 30.6088 166.709 28.1504 171.397C25.2338 176.543 24.1296 179.709 21.4421 184.626C17.192 192.459 11.1295 200.501 9.567 204.064L7.81699 208.105C7.81699 208.105 7.33782 210.085 7.12949 211.439C6.90032 212.772 6.90032 215.022 6.67115 215.918C6.48163 216.813 6.10538 217.658 5.56698 218.397C5.35864 218.605 2.87946 223.751 1.98362 227.105C1.08778 230.439 -0.933059 240.981 1.54612 242.314C4.00447 243.668 22.1087 235.856 24.5671 228.23C26.1504 223.314 19.6504 220.835 21.4421 216.355C22.1087 214.793 22.5671 214.585 23.6712 213.022C25.4629 210.105 24.7963 204.085 28.1504 198.501C30.6088 194.48 35.5255 189.293 42.2339 181.689C46.4839 177.001 50.5256 169.397 50.5256 169.397C50.5256 169.397 51.4214 166.709 53.2339 167.168C55.2339 167.605 57.0048 167.376 57.0048 167.376L57.9006 168.063L59.6923 169.855L62.3798 173.876C62.3798 173.876 66.8798 180.334 68.4215 182.147C70.0049 183.939 71.5674 185.272 73.8174 187.064C76.2757 189.293 77.1507 190.418 80.2757 192.897C84.7549 196.459 83.1716 197.814 77.3591 194.668C74.9413 193.441 72.399 192.477 69.7757 191.793C67.109 191.105 57.0256 188.418 51.8797 187.751C46.9631 187.084 46.0464 187.314 46.0464 187.314C46.0464 187.314 43.588 187.064 40.6922 188.855C37.7755 190.647 36.213 191.98 36.213 191.98C36.213 191.98 32.8588 195.793 32.6296 196.459C32.4213 197.126 30.8379 199.793 30.8379 199.793C30.8379 199.793 29.9213 201.168 29.7129 202.709C29.2546 204.293 29.5046 205.855 29.5046 205.855L29.7129 209.189L29.9421 212.314C29.9421 212.314 30.6296 220.168 32.1921 228.001C32.6296 230.23 33.088 233.814 33.088 233.814L34.1713 241.876C34.1713 241.876 34.8588 250.397 35.5255 253.293C36.1922 256.001 36.6505 256.21 37.1088 257.981C38.0047 261.335 36.4422 262.897 38.0047 266.939C39.5672 270.96 40.9213 270.481 42.4839 272.96C43.6089 274.752 44.0255 275.189 44.9214 277.439C45.8172 279.668 48.7339 287.085 52.0881 292.439C55.6714 298.043 60.3798 304.96 63.5256 304.293C66.6507 303.606 68.8798 298.71 68.8798 298.71C68.8798 298.71 72.4632 289.064 70.234 279.668C67.984 270.043 57.6923 274.564 56.3589 267.627C56.1506 266.064 56.3589 263.606 56.3589 263.606C56.3589 263.606 56.1089 260.668 55.6714 259.772C55.2131 258.876 51.6297 252.189 50.2964 246.585C49.1714 242.335 49.4006 228.668 48.5047 224.855C46.0464 215.022 45.8172 215.897 47.1505 214.126C48.7339 212.335 50.0881 212.772 50.0881 212.772L52.0881 213.022L53.6714 213.668L56.5673 215.46C57.4631 216.126 60.5881 218.585 60.5881 218.585L68.1923 223.522C68.1923 223.522 72.4632 226.001 74.2549 226.897C76.0465 227.793 77.5882 228.897 77.5882 228.897L79.5882 230.23L82.9633 232.73L83.6091 233.355L84.0674 234.251C84.0674 234.251 85.6508 237.856 92.3591 241.668C97.7342 244.793 102.443 243.876 104.443 246.356C104.901 246.793 108.672 251.981 110.484 255.106C112.713 258.668 115.401 262.897 116.297 264.251C117.193 265.585 122.797 272.502 122.797 272.502L130.172 280.564L139.818 289.522L148.526 296.918L154.089 301.398C154.089 301.398 159.026 306.106 164.63 309.898C170.005 313.481 170.214 313.918 173.797 316.356C176.464 318.168 180.047 320.648 183.631 323.335C187.214 326.252 191.256 331.585 189.693 333.377C188.568 334.044 186.547 331.169 182.735 327.814C180.25 325.58 177.641 323.486 174.922 321.543C170.901 318.418 168.86 316.814 164.38 314.127C162.151 312.793 158.13 310.356 157.922 310.793C156.36 315.502 156.547 319.96 156.776 325.773C156.985 329.794 157.672 333.814 159.005 338.96C160.13 343.877 161.255 346.585 163.047 351.273C164.839 355.981 168.214 363.356 168.214 363.356L173.339 373.669L178.047 381.481L180.505 385.502L181.401 386.836C181.401 386.836 182.506 389.544 181.401 391.315C180.297 393.086 178.922 396.919 176.922 397.148C174.901 397.586 170.214 397.836 170.214 397.836L143.589 397.377L129.714 396.252C129.714 396.252 128.172 395.356 120.13 395.356C115.422 395.356 111.609 397.356 108.922 397.586C106.693 397.794 95.7133 396.919 88.3383 399.815C81.4007 402.731 78.2549 403.398 75.7965 407.877C74.0049 411.232 84.5466 416.627 93.255 418.627C107.359 421.752 103.318 415.711 108.672 411.919C109.359 411.461 109.588 411.044 110.276 410.815C113.838 409.69 115.838 412.565 119.443 412.565C123.443 412.565 125.693 411.232 129.714 410.565C150.068 407.877 181.839 417.482 181.839 417.482C181.839 417.482 189.693 419.94 193.276 419.273C197.526 418.377 196.61 416.815 197.943 414.357C199.068 412.336 198.631 411.919 198.839 409.669C198.839 408.336 198.631 407.669 198.401 406.336C197.506 402.523 195.068 397.148 195.068 397.148C195.068 397.148 193.256 393.127 192.568 391.106C191.693 388.211 190.797 386.398 190.339 383.273C189.006 374.981 189.235 375.669 189.235 370.981C189.235 362.481 190.131 357.773 192.36 349.502C195.735 337.419 202.006 332.273 206.693 320.648C208.047 317.523 208.026 313.043 209.61 312.585C211.381 312.377 211.172 318.189 210.276 321.543C207.36 333.169 200.214 338.085 196.86 349.94C194.401 359.106 193.047 364.46 193.735 373.856C193.943 379.002 195.964 387.086 195.964 387.086C195.964 387.086 198.651 396.023 199.985 399.377C201.339 402.731 204.006 408.336 204.006 408.336L210.047 419.065L213.172 424.19C213.172 424.19 215.381 426.211 214.277 429.565C213.152 432.919 210.943 434.982 208.235 437.878C200.651 446.836 182.985 460.003 178.505 463.128C172.255 467.836 172.443 469.19 171.985 470.544C169.526 477.711 162.36 477.919 154.547 486.419C152.755 488.211 148.068 493.107 148.964 497.357C149.401 498.919 168.651 502.295 179.839 497.607C188.589 493.794 180.964 489.524 183.422 485.274C185.214 482.149 189.672 482.149 191.693 479.44C195.026 474.982 192.797 475.211 195.714 471.649C205.339 460.003 211.61 453.315 228.839 442.794C230.402 441.898 233.318 440.565 233.318 440.565C233.318 440.565 235.756 439.419 236.652 438.065C237.777 436.273 237.547 434.732 237.547 432.711C237.547 431.357 237.339 430.711 237.339 429.377C237.339 427.794 237.548 426.898 237.089 425.336C236.652 422.877 235.11 420.857 234.214 419.502C232.474 417.367 231.312 414.82 230.839 412.107C229.619 407.985 229.862 403.569 231.527 399.606C233.318 394.919 237.339 391.127 237.339 391.127L247.381 384.398C247.381 384.398 256.131 378.127 258.839 375.648C261.735 373.19 267.318 368.044 271.339 362.231C276.048 355.752 278.506 351.71 280.506 343.898C281.173 340.981 281.86 336.523 281.86 336.523C281.86 336.523 281.86 333.398 283.652 333.189C285.423 332.96 285.881 333.606 285.881 333.606C285.881 333.606 287.423 334.481 287.881 338.96C288.089 343.439 286.777 348.606 286.777 348.606C286.777 348.606 285.423 353.731 284.985 356.856C284.777 358.877 284.735 359.981 284.735 362.231C284.735 366.044 286.319 369.19 286.319 369.19C286.319 369.19 287.214 369.856 287.214 368.294C287.334 365.87 287.719 363.467 288.36 361.127C289.027 358.898 289.464 359.315 290.798 355.502C292.589 350.585 291.006 351.065 291.902 348.148C292.36 346.814 293.485 345.46 294.819 345.46C296.173 345.46 296.381 347.252 296.381 347.252C296.381 347.252 297.735 353.085 296.631 358.44C295.506 363.815 291.464 371.19 291.464 371.19L288.36 376.544C288.36 376.544 286.131 380.356 285.235 382.815C284.339 385.502 284.089 386.627 284.548 389.065C285.214 391.773 287.256 395.377 288.36 394.69C289.256 394.023 287.027 391.773 289.714 386.398C292.402 381.023 295.923 377.69 295.923 377.69C295.923 377.69 300.86 371.856 303.09 367.398C305.11 363.377 307.131 356.856 307.131 356.856C307.131 356.856 308.715 351.023 308.256 346.106C308.048 341.419 307.131 338.96 307.131 338.96L305.131 335.377L303.985 332.731L304.444 331.148C304.881 330.919 306.465 332.044 307.819 333.835C309.45 335.938 310.589 338.38 311.152 340.981C311.763 343.015 312.065 345.129 312.048 347.252C312.048 349.044 311.402 356.419 314.069 361.127C315.194 363.377 317.881 368.502 318.11 366.252C318.548 361.106 316.298 358.669 316.527 353.96C316.735 348.606 318.11 349.939 318.548 347.252C319.006 344.335 319.652 343.648 319.215 339.856C318.763 337.051 318.095 334.286 317.215 331.585L315.631 328.002L314.965 326.669C314.965 326.669 315.402 326.023 316.069 326.023L321.444 324.231C321.444 324.231 328.402 321.106 331.09 318.856C334.006 316.835 337.34 313.231 337.34 313.231C337.34 313.231 341.819 307.668 344.069 303.648C349.444 293.564 349.423 280.814 349.194 274.981C348.986 269.397 347.402 262.001 347.402 262.001C347.402 262.001 345.611 253.043 346.069 247.231C346.506 241.418 346.965 238.731 346.965 238.731C346.965 238.731 346.756 232.918 351.673 226.647C356.59 220.397 358.798 216.376 359.694 211.668C360.59 207.647 359.236 201.168 357.444 203.626C355.444 206.314 354.59 211.689 351.673 216.147C347.652 222.418 341.798 230.022 338.902 230.022C337.34 230.022 336.902 226.439 336.902 226.439C336.902 226.439 334.902 220.397 338.256 212.772C340.715 207.397 342.027 205.855 345.173 201.834C348.09 198.022 349.861 196.001 351.882 191.98C353.673 188.397 354.09 187.73 355.215 182.147C355.423 180.793 355.007 177.897 353.673 178.105C351.881 178.105 346.965 188.876 341.819 194.918C336.902 200.501 327.715 207.647 327.715 207.647C327.715 207.647 326.819 208.293 326.819 206.501C326.611 204.939 326.361 200.251 327.256 196.022C328.38 190.705 330.432 185.627 333.319 181.022C337.569 173.647 342.923 168.522 345.611 165.813C346.736 164.709 350.09 162.668 348.319 161.543C346.736 160.647 342.027 164.668 338.444 167.376C333.986 170.709 332.423 171.647 327.965 177.022C323.486 182.376 322.34 184.626 322.34 184.626C322.34 184.626 318.09 191.543 316.965 198.251C315.84 204.96 315.86 208.751 315.86 208.751C315.86 208.751 315.86 214.814 316.527 218.397C316.965 222.189 318.548 227.98 318.548 227.98C318.548 227.98 320.798 234.501 321.673 238.543C322.59 242.564 324.131 254.397 324.131 254.397C324.131 254.397 325.256 262.918 324.569 270.96C323.902 279.022 323.235 283.71 322.34 286.168C321.444 288.647 319.006 295.127 314.965 299.606C311.173 303.856 310.256 304.523 310.256 304.523C310.256 304.523 306.235 307.856 302.881 309.648C299.496 311.482 295.979 313.062 292.36 314.377C290.514 314.706 288.65 314.921 286.777 315.023H283.881L282.985 314.398L282.506 312.585C282.506 312.585 280.298 303.856 277.631 298.273C275.381 293.564 270.673 287.085 270.673 287.085C270.673 287.085 262.61 276.106 256.339 270.064C249.173 262.918 241.131 257.564 236.193 253.751C234.402 252.418 230.381 249.918 230.381 249.918C230.381 249.918 214.068 233.605 208.256 220.626C204.214 211.668 201.547 205.21 202.672 195.355C202.881 193.126 203.776 188.855 204.214 188.855L207.131 189.751C207.381 189.959 210.047 192.439 212.527 193.334C213.86 193.772 216.297 194.23 216.297 194.23C216.297 194.23 218.318 194.439 219.422 194.668C220.547 195.126 222.568 195.793 223.902 196.459C225.256 197.126 227.235 198.501 227.235 198.501L231.068 201.376L235.11 204.501C235.11 204.501 237.318 206.085 237.985 206.314C238.652 206.522 239.11 206.751 239.339 206.751H240.235C240.235 206.751 241.152 206.501 241.36 205.605C241.589 204.501 240.256 205.397 238.235 203.168C236.988 202.097 235.931 200.822 235.11 199.397C235.11 199.397 234.652 197.584 232.86 195.564C231.068 193.543 228.839 191.772 228.839 191.772C228.839 191.772 227.256 190.668 225.006 189.98C222.777 189.314 222.089 189.293 221.881 188.397C221.672 187.501 224.568 187.959 224.568 187.959C224.568 187.959 227.943 188.397 230.61 189.751C233.318 191.084 234.86 192.668 234.86 192.668L236.652 194.23L237.797 195.355L238.881 196.022C238.881 196.022 240.006 197.126 240.235 195.564C240.443 194.23 240.006 193.105 239.777 192.876L238.672 191.772L234.214 187.959C233.134 186.794 231.933 185.746 230.631 184.834C228.821 183.559 226.862 182.509 224.797 181.709C222.568 180.793 221.235 181.022 218.985 179.897C217.422 179.23 216.068 178.793 215.172 177.459C214.943 177.251 213.839 176.313 215.86 176.772C217.86 177.209 219.193 177.897 221.422 178.355C225.006 179.251 227.256 179.23 230.631 180.355C231.964 180.793 233.756 181.689 233.756 181.689L237.985 183.48C237.985 183.48 243.818 186.626 247.839 186.855C250.819 187.086 253.813 186.63 256.589 185.522C258.214 184.856 259.725 183.943 261.068 182.814C261.479 182.412 261.843 181.965 262.152 181.48L262.61 180.355V179.459C261.485 178.105 259.277 181.709 255.693 182.376C251.881 183.064 252.089 183.48 249.631 183.043C247.238 182.792 245.017 181.682 243.381 179.918C239.777 176.543 238.464 173.418 233.756 171.397C231.756 170.501 228.131 169.605 228.131 169.605C228.131 169.605 223.214 168.043 220.527 166.48C218.527 165.355 214.318 164.688 215.652 162.897C216.318 162.001 221.693 165.126 225.693 165.584C228.61 166.022 230.631 165.813 232.86 165.813C235.089 165.813 238.235 165.126 238.693 165.126C239.131 164.918 240.902 165.126 242.464 165.584C244.027 166.022 244.923 166.688 246.485 167.376C248.068 168.043 249.881 169.168 250.318 169.168L251.214 169.397L251.673 168.959L251.881 168.501L251.673 168.063L250.964 167.605L249.631 166.709C249.631 166.709 247.631 165.584 245.839 163.793C244.048 162.001 242.464 160.001 239.798 159.105C237.089 158.209 233.964 157.772 233.964 157.772L230.839 157.522L229.485 157.313C229.485 157.313 227.256 156.626 229.047 156.188C230.068 155.876 231.114 155.653 232.172 155.522C233.884 155.151 235.663 155.223 237.339 155.73C239.131 156.397 242.048 157.959 242.256 157.959C242.485 158.188 245.173 160.23 248.089 160.897C251.006 161.563 254.798 161.793 254.798 161.793L256.589 161.355L257.485 161.105L258.131 160.647L257.923 159.563C257.923 159.563 257.923 158.647 256.589 158.418C254.25 158.146 252.012 157.309 250.068 155.98C247.61 154.188 245.839 152.397 245.839 152.397C245.839 152.397 244.048 150.813 240.464 149.897C237.131 149.022 236.006 149.022 236.006 149.022L234.86 148.563L232.422 147.48C232.422 147.48 231.277 146.793 230.381 145.688C229.485 144.563 228.172 142.522 231.964 143.647C235.777 144.772 236.652 145.438 236.652 145.438C236.652 145.438 238.673 147.459 240.464 147.668C241.589 147.897 242.485 148.126 243.173 147.23C244.277 146.105 241.131 144.772 238.881 143.188C237.455 142.074 236.241 140.712 235.297 139.167C235.297 139.167 233.985 138.063 236.006 138.522C238.006 138.959 241.568 141.209 241.568 141.209C241.568 141.209 243.36 142.084 244.277 142.313C244.923 142.522 246.735 143.647 247.631 144.084C248.298 144.313 250.339 144.772 251.652 145.438C253.443 146.563 254.36 148.355 255.235 149.022C256.131 149.688 256.818 150.834 257.943 151.043C259.048 151.272 259.256 151.709 259.923 151.251C260.235 151.055 260.534 150.839 260.818 150.605C260.818 150.605 261.027 150.126 259.923 149.459C258.818 148.793 257.485 147.022 257.485 147.022L257.027 146.126L256.798 145.23L255.693 143.438L253.652 140.522C253.652 140.522 250.527 136.272 247.631 134.688C244.943 133.126 242.923 132.251 242.923 132.251C242.923 132.251 241.589 131.605 240.923 131.147C239.798 130.251 239.339 129.542 238.422 128.438C237.318 127.084 236.902 126.23 235.547 124.897C233.089 122.438 225.485 121.063 228.381 119.272C229.964 118.376 231.964 118.855 232.86 119.063C233.756 119.292 235.777 120.147 237.797 120.813C239.131 121.272 240.027 121.313 241.36 121.751C242.714 122.209 244.277 122.397 244.943 122.855C245.61 123.292 246.298 124.209 246.735 124.438C246.964 124.647 248.735 127.563 251.86 129.126C254.985 130.688 256.589 131.792 259.714 132.001C262.173 132.23 266.173 131.376 266.173 131.376C266.173 131.376 267.318 130.897 266.423 129.772C265.318 128.647 265.298 128.438 264.402 128.23C260.818 126.876 257.943 127.334 255.235 124.647C254.131 123.522 253.652 123.292 252.756 121.522C251.86 119.73 252.339 119.292 251.673 118.188C251.214 117.063 250.068 115.48 250.068 115.48C250.068 115.48 246.735 111.438 243.152 109.438C240.686 108.185 238.355 106.684 236.193 104.959C235.527 104.501 234.214 102.709 234.214 102.709L233.068 100.917L232.422 99.5839C231.964 97.1256 236.422 100.271 238.881 101.167C242.923 102.501 244.943 104.292 248.985 105.646C251.214 106.313 252.568 106.292 254.798 107.188C258.589 108.751 259.714 112.563 263.756 113.021C265.985 113.23 270.464 114.126 269.569 112.105C268.673 109.876 264.193 109.876 261.964 107.188C260.839 106.063 260.839 104.98 259.714 103.855C257.923 101.605 253.673 99.5839 253.673 99.5839C253.673 99.5839 252.339 98.4797 250.756 95.3547C249.423 92.2297 246.068 89.938 240.027 87.0422C236.006 85.0422 227.943 84.5838 231.068 82.563C232.86 81.2296 234.422 81.4588 236.902 82.1255C239.36 83.0213 240.235 84.1671 242.256 85.0421C244.277 85.9588 245.173 86.1672 245.589 86.3963C246.048 86.6047 247.61 87.2922 248.298 87.2922C248.714 87.5005 252.11 87.9588 253.006 88.188L257.485 89.2922L261.068 90.6255C261.068 90.6255 262.839 91.313 263.943 91.313C265.048 91.313 266.881 90.8755 266.881 90.8755L268.214 89.9797L268.423 89.5213C268.423 89.5213 269.11 88.4172 267.319 88.188C266.436 88.0467 265.545 87.9632 264.652 87.938L263.048 87.5005L262.423 87.2922C262.423 87.2922 259.277 84.8338 256.589 83.7088C255.456 83.2846 254.331 82.8401 253.214 82.3755L252.11 82.1255L250.777 81.9171C250.777 81.9171 249.631 81.9171 247.839 80.3338C246.048 78.7713 245.381 77.8755 243.818 76.3129L241.818 74.3129C241.818 74.3129 240.027 72.9379 240.027 71.8129C240.235 70.0421 244.048 73.8546 244.048 73.8546L246.756 75.6463C246.756 75.6463 248.985 77.2296 253.006 77.4379C257.027 77.6671 261.964 76.3129 261.964 76.3129C261.964 76.3129 262.61 75.8963 264.839 76.5421C267.068 77.1879 268.881 78.5421 268.881 78.5421L270.673 80.1255L273.36 83.0213L273.798 82.813C274.006 82.6046 275.152 81.4588 273.152 79.0005C271.131 76.5213 267.777 74.3129 267.777 74.3129C267.777 74.3129 263.298 71.6254 258.818 70.7296C254.36 69.8337 252.318 69.8337 252.318 69.8337C252.318 69.8337 248.964 69.8337 246.943 67.6046C244.923 65.3545 243.61 63.1254 243.61 63.1254L242.923 60.0003C242.923 60.0003 241.818 58.6462 239.589 57.7503C237.568 56.8545 235.297 55.5211 235.297 55.5211C235.297 55.5211 231.964 54.3961 231.714 52.8128C231.047 49.917 237.339 52.8128 240.673 53.4795C243.798 54.1461 245.152 55.292 248.277 55.9795C250.604 56.6408 253.037 56.8529 255.443 56.6045C257.006 56.6045 257.902 56.4378 259.464 56.1878C261.048 56.1878 262.173 55.9795 263.756 56.1878C265.985 56.6462 266.881 57.7503 269.11 58.6462C270.464 59.3128 271.131 59.9587 272.694 60.1878C274.048 60.417 276.735 61.3337 276.277 59.9795L275.589 59.0837C274.464 57.5212 273.152 57.5212 271.798 56.417C268.881 54.167 267.548 52.3961 264.194 50.8336C262.306 49.8247 260.264 49.1349 258.152 48.7919C256.339 48.5836 255.006 49.0419 253.214 48.5836C251.193 47.9169 250.548 47.0211 248.527 45.9169C245.402 44.1253 243.589 42.5419 240.235 41.1877C238.257 40.4765 236.24 39.8783 234.193 39.3961L232.61 39.1877L231.985 38.9586C228.839 37.8335 237.547 35.396 241.568 34.271C243.589 33.8335 244.485 33.3544 246.485 33.5835C248.277 33.7919 250.298 36.2919 252.318 35.1669C255.235 33.6044 248.964 29.3335 246.943 28.6668C244.256 27.5418 239.568 28.4585 239.568 28.4585L229.277 28.2085L226.36 27.771C226.36 27.771 224.568 27.771 223.235 26.2085C221.881 24.646 216.756 18.3543 210.943 17.4584C204.901 16.5626 203.11 17.4584 202.672 17.0418C197.526 8.95838 192.131 7.18754 188.089 3.39585C186.985 2.27085 185.214 -0.208335 184.756 0.0208335L184.776 0ZM209.214 23.7501C209.568 23.7331 209.923 23.7331 210.276 23.7501L211.381 24.4376C212.297 25.3439 213.051 26.401 213.61 27.5627C213.839 28.4585 210.943 27.3543 209.839 27.1043C208.703 26.7873 207.641 26.2493 206.714 25.521C206.714 25.521 206.235 24.8543 207.339 24.1876C207.919 23.888 208.561 23.7517 209.214 23.7501ZM214.464 34.7919C215.006 34.7919 215.402 34.9169 215.402 34.9169L216.506 35.6252C217.423 36.5309 218.177 37.5881 218.735 38.7502C218.964 39.6461 216.068 38.5419 214.964 38.2919C213.828 37.9749 212.766 37.4368 211.839 36.7085C211.839 36.7085 211.381 36.0419 212.735 35.3752C213.232 34.9985 213.841 34.8004 214.464 34.8127V34.7919ZM175.255 35.0835C175.812 35.0552 176.371 35.0831 176.922 35.1669C176.922 35.1669 177.818 35.1669 179.151 35.8127C180.506 36.7085 181.401 39.3961 181.401 39.3961C181.401 39.3961 181.61 39.8544 180.505 39.8544C179.818 39.8544 179.818 38.7502 179.151 38.2919C178.255 37.6252 177.589 37.396 176.464 36.9585C175.36 36.521 173.797 37.1669 173.589 36.0627C173.589 35.396 174.422 35.146 175.255 35.0835ZM157.672 37.6877C158.547 37.4377 157.672 39.1877 157.672 39.1877C157.672 39.1877 154.776 43.8752 150.755 45.6669C146.734 47.4586 144.047 48.3753 136.422 49.042C135.318 49.042 135.797 48.3544 135.797 48.3544C135.797 48.3544 144.484 45.9169 149.422 43.2294C151.777 41.9226 154.021 40.4245 156.13 38.7502C156.578 38.3133 157.1 37.9396 157.672 37.6877ZM173.339 38.9377C173.339 38.9377 174.693 38.9794 176.255 40.0836C177.839 41.2086 179.172 45.0211 179.172 45.0211C179.172 45.0211 179.63 47.4586 178.505 48.3544C177.38 49.2503 175.589 47.7086 174.672 46.3544C173.874 45.2257 172.687 44.4317 171.339 44.1253C169.547 43.4586 166.86 45.4586 166.422 44.1253C166.422 43.6669 166.63 42.5419 166.63 42.5419C166.63 42.5419 167.089 41.2086 169.11 40.1044C170.901 38.9794 173.339 38.9586 173.339 38.9586V38.9377ZM214.964 47.5836C215.86 47.6669 217.11 48.3544 218.089 48.3544C221.006 48.3544 223.443 48.3544 225.464 48.7919C227.256 49.2503 227.693 50.3545 226.797 50.3545C226.146 50.5286 225.472 50.6058 224.797 50.5836C222.797 50.5836 223.006 49.6878 220.339 51.042C217.631 52.3753 219.652 51.7295 215.86 53.0628C212.277 54.417 213.152 50.8336 213.152 50.8336C213.152 50.8336 213.422 50.1461 213.86 48.3336C214.027 47.6878 214.422 47.5211 214.964 47.5836ZM114.047 57.9587C115.401 57.9587 117.88 58.8753 117.88 60.8753C118.088 62.8962 116.505 62.0004 115.38 62.667C114.734 63.1254 114.297 63.3545 113.401 64.0212C112.276 64.917 111.151 67.1462 110.484 66.4587C109.568 65.792 110.026 63.3337 110.026 63.3337C110.026 63.3337 110.713 61.542 111.609 59.7503C112.734 57.9587 114.047 57.9587 114.047 57.9587ZM221.068 60.2712C221.421 60.2879 221.77 60.3438 222.11 60.4378C222.11 60.4378 222.777 60.6462 223.214 61.0837C223.672 61.542 225.464 63.1254 225.464 64.0004C225.464 64.6879 222.568 63.542 221.235 63.3337C219.881 63.1045 218.11 61.7712 218.11 61.7712C218.11 61.7712 217.652 61.3545 218.985 60.6878C219.635 60.3799 220.35 60.2368 221.068 60.2712ZM181.589 62.1045C181.797 62.1045 181.776 62.417 181.38 63.1254C180.505 64.917 177.818 67.1462 177.818 67.1462C177.818 67.1462 174.693 71.6046 174.026 72.2712C171.11 74.5213 167.526 73.1879 165.964 73.4171C164.63 73.6254 165.526 72.2712 165.526 72.2712C165.526 72.2712 169.339 70.7296 171.776 69.3962C175.068 67.7504 180.672 62.1045 181.589 62.1045ZM135.589 66.042C136.068 66.042 136.443 66.2504 136.443 66.9379C136.672 68.5004 133.776 69.6046 133.776 69.6046C133.776 69.6046 132.901 69.8337 132.672 68.2712C132.464 66.7087 133.776 66.4795 133.776 66.4795C133.776 66.4795 134.818 65.9795 135.589 66.042ZM191.006 68.4796C191.381 68.2712 191.068 70.5004 191.068 70.5004C191.068 70.5004 190.381 73.4379 188.818 74.3338C186.818 75.4588 181.86 76.7921 181.422 76.1254C181.422 75.6671 187.901 73.6254 190.797 68.7296C190.846 68.6312 190.918 68.5456 191.006 68.4796ZM221.297 69.2921C221.662 69.2939 222.025 69.3359 222.381 69.4171C222.381 69.4171 223.006 69.6254 223.693 70.0421C224.36 70.7296 225.943 72.5421 226.172 73.4379C226.381 74.3338 223.256 73.2296 221.693 73.0004C220.36 72.7712 218.318 71.2087 218.318 71.2087C218.318 71.2087 217.902 70.5212 219.256 69.8546C219.866 69.4692 220.576 69.2734 221.297 69.2921ZM194.193 74.3754C194.61 74.2504 193.943 76.1254 193.943 76.1254C193.943 76.1254 193.047 79.0421 191.256 79.7088C189.026 80.3755 180.547 80.5838 180.318 79.9171C180.11 79.2296 190.151 78.3338 193.943 74.5421C194.009 74.4641 194.096 74.4063 194.193 74.3754ZM221.985 78.2296C222.405 78.2292 222.824 78.2711 223.235 78.3546C223.235 78.3546 223.922 78.563 224.589 79.0213C225.256 79.688 227.047 81.7296 227.277 82.8338C227.485 84.188 224.152 82.8338 222.589 82.3963C221.19 81.9737 219.887 81.28 218.756 80.3546C218.756 80.3546 218.318 79.7088 219.652 78.813C220.358 78.4012 221.168 78.1988 221.985 78.2296ZM221.985 89.4172C222.405 89.4168 222.824 89.4586 223.235 89.5422C223.235 89.5422 223.922 89.7505 224.589 90.2088C225.256 90.8755 227.047 92.9172 227.277 94.0214C227.485 95.1464 224.152 93.7922 222.589 93.3339C221.191 92.9289 219.888 92.249 218.756 91.3339C218.756 91.3339 218.318 90.8964 219.652 90.0005C220.36 89.596 221.17 89.4009 221.985 89.438V89.4172ZM189.318 100.126C191.047 100.626 189.464 113.23 186.131 119.084C181.836 126.271 176.641 132.88 170.672 138.751C167.547 140.98 169.568 136.959 169.568 136.959C169.568 136.959 178.276 124.897 182.318 116.396C185.235 110.355 187.026 102.313 188.36 100.73C188.776 100.271 189.068 100.063 189.318 100.126ZM221.61 100.292C222.095 100.308 222.577 100.378 223.047 100.501C223.047 100.501 223.922 100.709 224.589 101.396C225.256 102.063 227.506 104.542 227.714 105.667C227.714 107.001 223.922 105.188 222.152 104.98C220.597 104.542 219.154 103.775 217.922 102.73C217.922 102.73 217.443 101.834 219.006 100.938C219.782 100.45 220.695 100.224 221.61 100.292ZM220.193 111.126C220.612 111.118 221.031 111.153 221.443 111.23C221.443 111.23 222.131 111.48 222.797 111.938C223.464 112.605 225.256 114.605 225.485 115.709C225.693 116.834 222.36 115.501 220.797 115.271C219.414 114.861 218.126 114.181 217.006 113.271C217.006 113.271 216.589 112.584 217.902 111.688C218.596 111.285 219.391 111.09 220.193 111.126ZM219.547 120.834C219.881 120.817 220.214 120.817 220.547 120.834L221.693 121.522C222.617 122.427 223.378 123.484 223.943 124.647C223.943 125.563 221.235 124.438 219.902 124.23C218.568 124.001 216.777 122.667 216.777 122.667C216.777 122.667 216.318 122.001 217.672 121.334C218.249 121.022 218.892 120.851 219.547 120.834ZM218.318 130.355C218.633 130.374 218.947 130.416 219.256 130.48L220.152 130.938C220.589 131.376 221.902 132.709 221.902 133.376C221.902 134.272 219.464 133.167 218.568 133.167C217.671 132.899 216.841 132.445 216.131 131.834C216.131 131.834 215.881 131.355 216.756 130.688C217.214 130.355 217.797 130.334 218.318 130.355ZM216.443 139.147C216.701 139.145 216.958 139.159 217.214 139.188L218.11 139.647C218.568 140.084 219.652 141.209 219.652 141.876C219.443 142.334 217.422 141.438 216.527 141.438C215.74 141.165 214.991 140.794 214.297 140.334C214.297 140.334 214.089 139.876 214.985 139.438C215.444 139.236 215.942 139.136 216.443 139.147ZM57.9214 143.459C60.3798 143.917 60.8381 144.126 60.609 145.251C60.8173 146.376 57.7131 146.355 57.7131 146.355C57.7131 146.355 53.2131 147.272 53.9006 145.709C54.7964 144.126 57.9214 143.459 57.9214 143.459ZM214.402 146.063C214.86 146.063 215.235 146.147 215.235 146.147L216.131 146.605C216.568 147.043 217.672 148.168 217.672 148.834C217.443 149.501 215.422 148.626 214.547 148.397C213.631 148.168 212.297 147.251 212.297 147.251C212.297 147.251 212.089 146.793 212.985 146.355C213.429 146.153 213.913 146.053 214.402 146.063ZM211.902 153.918C212.111 153.917 212.319 153.931 212.527 153.959L213.193 154.418C213.402 154.626 214.527 155.751 214.527 156.209C214.527 156.876 212.943 156.209 212.047 156.001C211.381 155.793 210.297 155.105 210.297 155.105C210.297 155.105 210.089 154.647 210.756 154.209C211.095 154.007 211.506 153.906 211.902 153.918ZM148.13 156.418C149.398 156.417 150.664 156.494 151.922 156.647C158.172 157.543 164.214 163.147 163.297 163.813C162.401 164.48 161.068 163.813 160.61 163.813L158.38 162.709L155.005 161.813C155.005 161.813 148.964 160.459 144.505 160.668C140.026 160.897 136.005 162.459 136.005 162.459C136.005 162.459 134.214 163.376 133.776 162.251C133.547 160.918 134.464 160.23 134.464 160.23L134.672 159.772C134.672 159.772 139.797 156.376 148.13 156.418ZM41.6088 159.084C41.7547 159.084 41.8172 159.126 41.8172 159.126L42.2547 159.584C42.0464 159.584 42.9214 161.813 40.9213 164.043C38.9005 166.293 32.6505 178.147 31.3171 176.126C29.9629 174.564 37.3588 163.355 38.9213 161.126C40.088 159.272 41.1505 159.084 41.6088 159.084ZM209.318 161.522C209.631 161.522 209.86 161.563 209.86 161.563L210.506 161.813L211.652 163.355C211.422 164.022 210.068 163.584 209.401 163.355C208.735 163.355 207.818 162.459 207.818 162.459C207.818 162.459 207.61 162.251 208.276 161.834C208.587 161.634 208.948 161.525 209.318 161.522ZM68.0048 167.834C68.359 167.709 68.609 168.001 68.9007 168.084L70.0049 168.522L70.6924 169.188L72.9424 171.418C73.8382 172.751 76.2757 177.251 75.8174 177.668C73.8174 179.689 73.1507 177.001 70.2549 173.647C67.3382 170.522 68.0048 167.834 68.0048 167.834ZM206.193 168.876C206.371 168.882 206.547 168.917 206.714 168.98L207.381 169.188L208.506 170.772C208.506 171.209 207.151 170.522 206.485 170.522C205.797 170.522 204.922 169.626 204.922 169.626C204.922 169.626 204.464 169.418 205.131 169.188C205.45 168.992 205.818 168.89 206.193 168.897V168.876ZM105.172 177.022C105.901 177.084 104.901 178.376 104.901 178.376C104.901 178.376 101.068 183.501 98.8383 186.647C95.9217 190.876 92.3383 197.355 91.6716 196.689C91.005 196.022 94.8175 188.897 96.8383 185.084C99.0675 180.397 102.422 177.939 103.755 177.48C104.192 177.238 104.674 177.089 105.172 177.043V177.022ZM41.588 193.793L42.0255 194.251C42.0255 194.251 42.2547 195.126 40.6922 197.584C39.1297 200.043 37.9838 200.064 37.9838 200.064C37.9838 199.855 37.5672 198.959 38.9005 196.272C40.2338 193.584 41.588 193.793 41.588 193.793ZM14.1504 202.543C14.2799 202.577 14.396 202.65 14.4837 202.751C15.1504 203.647 13.1504 207.668 13.1504 207.668C13.1504 207.668 11.1295 211.897 10.442 210.105C9.77533 208.543 11.1503 205.647 11.1503 205.647C12.7129 204.272 13.4004 202.397 14.1504 202.543ZM192.589 208.314C194.589 208.543 194.381 212.355 194.381 213.251C195.047 219.73 197.756 226.251 202.672 234.085C209.61 245.043 220.797 253.543 220.339 254.231C219.214 255.335 208.047 246.606 204.006 241.689C197.297 233.626 192.339 224.897 190.797 213.939C190.339 211.48 190.339 207.876 192.589 208.314ZM60.8381 211.439C61.2756 211.439 63.2756 212.147 63.2756 212.147L68.1923 214.147C68.4007 214.147 70.9007 215.272 72.9215 216.376L77.7966 219.501L79.1716 220.647C79.1716 221.105 80.7341 223.564 77.5882 222.897C74.4632 222.21 67.7548 217.064 65.0673 215.73C62.359 214.397 57.9214 213.939 59.9423 212.147C60.1506 211.939 60.3798 211.439 60.8381 211.439ZM37.088 223.793C37.2394 223.764 37.3949 223.764 37.5463 223.793C38.9005 223.793 38.9005 224.876 38.9005 224.876V225.564C38.9005 225.564 38.8797 229.605 39.1088 232.73C39.1088 233.626 41.588 243.689 41.588 243.689C41.588 243.689 42.0255 244.585 41.1297 244.585C40.463 244.585 39.7963 243.231 39.7963 243.231C39.7963 243.231 37.9838 240.564 37.2963 238.564C36.6505 236.772 36.4213 233.835 36.4213 233.835C36.4213 233.835 35.963 230.043 35.963 228.71C36.1922 226.918 36.1922 225.335 36.4213 224.439C36.4518 224.279 36.5297 224.132 36.6449 224.017C36.7601 223.901 36.928 223.823 37.088 223.793ZM6.04614 229.147C6.25112 229.094 6.46617 229.094 6.67115 229.147C8.00449 229.376 7.31699 231.814 7.31699 232.939C7.31699 234.064 6.02531 236.064 5.56698 236.064C5.12947 236.064 4.2128 234.064 4.44197 232.939C4.65031 231.96 4.79614 229.46 6.04614 229.147ZM119.422 247.751C121.963 247.543 129.318 258.106 140.005 269.627C152.089 282.627 166.172 294.939 166.63 296.502C167.526 299.189 156.776 290.668 150.964 286.21C135.526 274.335 116.734 250.189 118.984 247.96C119.103 247.844 119.257 247.771 119.422 247.751ZM333.444 258.647C333.861 258.606 334.215 259.147 334.215 259.147L334.673 259.793C334.673 260.251 337.34 270.752 337.111 277.46C336.652 286.835 336.236 293.564 330.652 300.731C323.923 309.46 312.277 318.439 314.735 311.273C316.298 307.023 326.611 301.648 330.631 289.793C332.881 282.627 333.34 275.897 333.34 275.897L332.881 262.272C332.881 262.272 332.631 261.168 332.631 259.585C332.881 258.918 333.173 258.689 333.444 258.647ZM219.318 281.981C221.402 282.21 222.339 283.522 219.881 285.314C216.964 287.314 215.86 287.085 214.047 289.085C212.047 291.543 211.402 299.856 209.381 296.502C207.381 293.148 208.714 288.439 212.089 284.856C212.987 283.845 214.107 283.057 215.362 282.555C216.617 282.052 217.971 281.869 219.318 281.981ZM56.8381 291.127C57.6923 290.96 59.9423 292.668 59.9423 292.668C61.0465 292.877 62.1715 294.918 62.1715 294.918C62.1715 294.918 62.6298 296.502 61.2756 296.939C59.9423 297.606 59.0465 296.252 59.0465 296.252C59.0465 296.252 56.1298 292.231 56.5464 291.335C56.5752 291.28 56.6167 291.232 56.6673 291.196C56.718 291.16 56.7765 291.136 56.8381 291.127ZM271.569 322.898C272.006 322.898 272.923 323.356 274.048 325.606C275.173 327.856 272.256 343.689 268.673 341.439C266.652 340.106 269.777 336.106 269.777 332.752C269.777 330.064 269.319 328.023 269.319 325.794C269.319 323.564 271.569 322.898 271.569 322.898ZM205.172 350.502C205.964 350.585 206.172 351.71 205.089 353.96C203.526 357.315 203.089 358.44 202.86 361.585C202.401 364.919 204.443 374.294 201.318 370.752C200.193 369.169 199.068 361.794 199.964 358.21C200.943 353.169 203.839 350.398 205.172 350.502ZM188.089 394.627C188.839 394.523 189.214 394.898 189.214 394.898C189.672 395.794 188.756 396.711 188.526 396.94C187.683 397.377 186.776 397.68 185.839 397.836C184.506 398.044 185.214 396.94 185.214 396.94C185.214 396.94 186.068 395.565 187.193 394.898C187.474 394.758 187.777 394.666 188.089 394.627ZM128.151 399.377C129.943 399.377 129.943 400.273 129.943 400.273C129.943 400.94 129.255 401.19 127.443 400.961C125.901 400.752 125.693 400.294 125.922 400.065C125.922 399.856 126.359 399.377 128.151 399.377ZM141.734 400.023C141.902 400.005 142.072 400.019 142.234 400.065C142.234 400.065 149.839 401.398 154.755 401.606C158.339 401.836 160.13 402.086 163.714 401.856C165.735 401.856 164.61 401.606 167.735 401.606C168.86 401.398 168.193 402.981 167.297 403.211C163.943 404.106 162.589 403.627 159.693 403.856C157.214 404.065 156.089 404.294 153.63 404.294C149.38 404.294 148.964 404.544 142.922 402.752C141.797 402.315 140.422 400.961 140.88 400.523C140.976 400.381 141.103 400.263 141.251 400.176C141.398 400.09 141.564 400.037 141.734 400.023ZM91.005 401.377C93.63 401.44 92.7966 402.315 92.7966 402.315C92.7966 402.315 92.7758 403.19 91.2133 404.294C89.63 405.419 88.9841 404.752 88.755 404.752C88.5466 404.752 86.9633 403.856 86.9633 402.961C87.1924 402.065 89.6716 401.419 89.6716 401.419C90.1147 401.376 90.5601 401.362 91.005 401.377ZM231.86 432.211C232.041 432.207 232.223 432.221 232.402 432.252L232.839 433.148C232.839 433.357 231.047 435.857 230.152 435.857C229.047 435.607 229.464 434.294 229.464 434.294C229.464 434.294 229.027 432.94 230.36 432.502C230.841 432.326 231.348 432.228 231.86 432.211ZM215.152 438.836C215.318 438.836 215.527 438.857 215.631 438.961V439.857C215.839 440.544 210.006 447.044 205.985 450.857C202.193 454.44 195.693 459.357 195.693 459.357H194.797V458.211L195.047 457.773L195.485 457.107L195.943 456.419L196.381 455.794L197.735 454.19L200.86 451.294L203.985 448.378L208.922 443.44C208.922 443.44 210.693 441.461 211.36 441.003C212.027 440.565 212.485 440.107 213.152 439.669C213.818 439.336 214.61 438.878 215.152 438.836ZM182.797 465.773C182.982 465.747 183.17 465.759 183.349 465.809C183.528 465.859 183.695 465.946 183.839 466.065C184.526 467.628 183.422 468.065 183.422 468.065L181.38 469.648C181.151 469.648 179.818 470.773 179.38 470.086C178.922 469.419 179.589 468.524 179.589 468.294C179.589 468.086 180.943 466.523 182.068 466.065C182.289 465.919 182.537 465.82 182.797 465.773ZM160.985 486.482C161.901 486.378 162.568 487.753 162.568 487.753C162.568 487.753 163.026 488.399 163.026 489.294C163.026 489.982 161.005 489.753 159.901 490.649C158.547 491.544 161.255 494.253 156.985 494.024C154.547 493.815 155.88 491.565 156.11 491.336L157.651 489.107C158.776 487.524 159.464 487.294 160.568 486.607C160.695 486.534 160.838 486.491 160.985 486.482Z" fill="white"/>
</svg>
