<svg width="1057" height="264" viewBox="0 0 1057 264" fill="none" xmlns="http://www.w3.org/2000/svg">
<path d="M792.549 264L1056.55 0H897.654L633.659 264H792.549ZM754.698 114.972H435.109C337.71 114.972 320.665 120.137 278.948 161.854C239.931 200.871 176.554 264 176.554 264H314.995L348.022 230.973C369.736 209.259 380.934 207.009 426.529 207.009H662.666L754.698 114.972ZM274.685 143.027C245.871 170.214 183.176 231.116 149.384 264H0.548828C0.548828 264 119.811 145.085 186.097 79.838C254.39 14.828 288.435 0 413.698 0H869.675L770.945 98.725H422.96C334.943 98.725 315.165 104.824 274.685 143.027Z" fill="white"/>
</svg>
