<svg width="605" height="500" viewBox="0 0 605 500" fill="none" xmlns="http://www.w3.org/2000/svg">
<path d="M330.469 96.4698C330.469 42.8755 286.332 0 232.108 0C230.216 0 112.309 0 112.309 0V194.831C114.2 196.092 116.092 197.984 117.353 199.245C131.224 214.377 131.855 239.598 119.875 255.361C117.353 258.514 114.831 261.666 112.309 264.188V300.759C113.57 300.128 114.831 299.498 116.092 298.237C116.722 297.606 117.983 296.975 118.614 296.345C119.244 295.714 121.136 294.453 127.441 289.409C139.421 279.951 153.923 268.602 170.317 264.819C175.361 263.558 177.883 262.927 181.035 262.927V54.8553H216.345C242.196 54.8553 261.742 73.771 261.742 97.7308C261.742 121.691 240.935 140.606 215.084 140.606H198.69V218.791L218.236 249.056C220.128 247.164 222.019 245.903 223.911 244.012L224.541 243.381L225.172 242.751C240.304 230.14 256.698 224.466 276.875 224.466C277.505 223.835 277.505 223.835 278.136 223.205L254.176 189.156C298.312 179.699 330.469 141.867 330.469 96.4698Z" fill="white"/>
<path d="M466.661 0H355.059V185.373C356.95 184.112 358.842 182.851 360.733 181.59C364.516 179.068 368.93 176.546 373.974 174.024L374.605 173.393L375.235 172.763C383.432 168.98 393.52 167.088 403.609 167.088C411.175 167.088 418.111 168.349 424.416 170.241V56.1164H467.922C486.838 56.1164 502.601 73.771 502.601 92.6866C502.601 111.602 486.838 127.365 467.922 127.365H445.223V180.329C447.115 181.59 449.006 182.851 450.898 184.112L451.528 184.743L453.42 186.004H486.838C510.167 186.004 527.821 204.919 527.821 228.249C527.821 236.445 525.93 243.381 522.147 249.686C531.605 261.666 544.215 276.799 551.151 288.779V289.409C554.303 295.084 556.825 301.389 558.717 308.325C582.677 291.301 598.44 264.188 598.44 233.923C598.44 196.723 585.199 170.241 541.062 149.434C558.717 133.04 570.066 110.341 570.066 85.7509C570.066 63.6826 561.239 42.8754 546.737 27.1124C531.605 9.45782 503.862 0 466.661 0Z" fill="white"/>
<path d="M332.987 441.993C334.249 443.885 335.51 446.407 336.771 448.929C338.662 453.342 340.554 456.495 342.445 457.126C343.076 457.126 344.337 457.756 344.967 457.756C349.381 457.756 355.056 455.234 359.469 452.081C361.991 450.19 361.361 448.929 360.1 447.037C359.469 446.407 359.469 445.776 358.839 445.146C357.578 442.624 356.947 440.732 356.317 438.21C355.056 433.796 353.795 430.644 349.381 431.274C343.076 431.905 336.771 432.535 329.835 432.535C329.835 432.535 327.313 432.535 326.682 433.796C326.052 435.688 327.943 436.949 329.835 438.84C331.096 440.101 332.357 441.363 332.987 441.993Z" fill="white"/>
<path d="M14.5706 463.433H13.94C10.1569 464.694 5.74326 469.739 5.74326 472.261C5.11274 484.871 4.48222 486.132 1.32961 489.915C0.0685724 491.176 -0.561948 493.698 0.699094 494.329C1.32962 494.959 13.94 499.373 15.2011 499.373C16.4621 498.743 17.0926 496.22 19.6147 487.393C20.8758 482.979 22.7673 477.305 24.0284 472.891C24.0284 472.891 24.0284 472.261 22.7673 470.369C22.1368 469.108 17.0926 463.433 14.5706 463.433Z" fill="white"/>
<path d="M602.846 443.253C599.063 441.362 595.28 439.47 595.28 439.47C586.453 434.426 581.409 425.599 576.365 417.402C574.473 414.249 572.581 410.466 570.059 407.944C568.798 406.052 566.276 403.53 563.754 401.639C562.493 399.747 560.602 397.856 560.602 397.225C552.405 375.157 543.577 348.675 541.686 319.671C541.055 315.257 538.533 305.169 534.75 298.864C523.401 279.948 495.658 247.792 493.766 245.9C492.505 244.639 491.875 244.008 490.614 242.747L489.983 242.117L440.172 200.502C430.084 193.567 426.931 192.306 419.995 189.784C415.582 187.892 409.907 187.261 404.232 187.261C397.297 187.261 390.361 188.523 384.056 191.045C380.272 192.936 376.489 195.458 372.706 197.98C366.401 201.763 359.465 206.177 352.53 208.699C346.855 211.221 341.18 213.113 334.875 215.004C323.526 218.788 311.546 221.94 302.718 230.767C300.196 233.29 297.674 235.181 295.783 237.073C286.955 245.269 286.325 245.9 279.389 245.9C262.996 245.9 251.646 249.683 239.666 259.771C230.208 268.599 220.751 276.165 210.032 280.579C204.988 282.47 199.943 283.101 193.638 283.731C184.811 284.362 183.55 284.362 175.984 286.253C164.004 288.775 151.393 298.864 140.674 307.061C136.891 309.583 132.478 313.366 130.586 314.627C129.325 315.257 128.064 316.518 126.803 317.149C113.562 324.715 100.952 332.281 85.1886 332.281C84.5581 332.281 84.558 332.281 83.9275 332.281C71.9476 331.651 61.2288 323.454 57.4456 312.105C54.293 300.125 57.4456 287.514 67.534 277.426C71.9476 273.012 77.6223 268.599 82.6665 264.185C90.8633 257.249 98.4295 250.944 104.104 243.378C110.409 235.181 109.779 220.679 102.843 213.113C95.9074 205.547 80.1444 201.763 74.4697 200.502H73.2087C72.5781 200.502 71.3171 200.502 71.3171 199.872C67.534 199.241 63.7509 198.611 60.5982 197.98C51.1404 195.458 44.2047 188.523 36.0079 184.109C31.5943 188.523 30.9638 193.567 30.9638 199.241C32.8553 211.852 42.9437 224.462 54.293 229.506C54.9236 229.506 55.5541 230.137 55.5541 230.137C59.3372 231.398 63.1203 232.028 66.2729 232.028C66.9035 232.028 67.534 232.028 68.795 232.028C69.4255 232.028 70.0561 232.028 71.3171 232.028C73.8392 232.028 76.3613 232.029 78.8834 232.659C81.4054 233.29 83.297 235.181 83.9275 238.334C83.9275 240.225 83.297 241.486 81.4054 242.747C79.5139 244.639 77.6223 245.9 75.7308 247.792C65.6424 255.988 55.5541 264.185 47.3573 274.273C36.0079 286.253 36.0079 307.061 41.0521 320.301C47.3573 337.956 65.6424 348.044 80.7749 349.936C83.297 350.566 86.4496 350.566 88.9717 350.566C97.799 350.566 106.626 348.675 114.823 346.153H115.454C116.084 346.153 116.715 346.153 116.715 348.044C116.715 351.828 117.345 355.611 117.345 360.024C117.345 366.33 117.976 372.635 118.606 375.157C119.867 380.832 122.389 387.767 124.281 392.811C124.911 394.703 125.542 396.595 126.172 397.225C126.803 399.747 126.172 402.9 124.281 404.161C117.976 409.835 105.365 414.249 102.843 414.88C99.06 415.51 95.2769 415.51 92.1243 415.51C90.8633 415.51 89.6022 415.51 88.9717 415.51C87.7107 415.51 86.4496 416.141 85.1886 417.402C83.297 419.293 81.4054 424.337 78.8834 430.012C77.6223 433.795 76.3613 436.948 74.4697 440.1C70.6866 446.406 63.7509 450.819 57.4456 454.602C55.5541 455.233 54.293 456.494 52.4015 457.125C49.8794 461.538 47.3573 465.321 43.5742 468.474C41.0521 470.996 37.269 471.627 34.1164 471.627C29.0722 477.301 27.1806 484.868 25.9196 492.434C25.9196 493.695 25.2891 494.956 25.2891 495.586V496.847H25.9196C28.4417 496.847 30.9638 497.478 34.1164 498.108C37.8995 498.739 41.6826 500 45.4657 500C49.2489 500 52.4015 499.37 54.9236 497.478C59.9677 494.956 62.4898 490.542 65.0119 486.759C66.9035 484.237 68.1645 481.084 70.6866 478.562C71.9476 477.301 73.8392 476.671 75.7308 476.671C77.6223 476.671 79.5139 477.301 81.4054 477.932C83.297 478.562 85.1886 479.193 87.0801 479.193C95.9074 479.823 104.104 474.149 108.518 470.996C110.409 469.735 112.301 467.843 113.562 465.952C116.084 463.43 119.237 460.908 121.759 459.016C125.542 457.125 129.956 456.494 135 456.494C141.935 456.494 148.871 457.755 154.546 459.016C157.699 459.647 160.851 460.277 164.004 460.277C169.678 460.277 174.723 459.016 178.506 456.494C183.55 453.972 188.594 450.819 192.377 448.928C194.899 447.667 196.791 446.406 198.682 445.775C205.618 441.992 211.923 431.273 213.815 426.86C215.706 422.446 219.49 413.619 219.49 413.619V412.988L211.293 406.683L210.662 407.313C210.662 407.313 204.988 416.141 201.835 420.554C187.333 440.731 163.373 443.253 144.458 443.253C143.197 443.253 141.935 443.253 140.674 443.253C116.715 443.253 97.799 451.45 83.9275 466.582C83.297 467.213 82.036 467.213 81.4054 466.582C81.4054 465.952 80.7749 465.321 81.4054 464.691C82.036 462.799 82.036 462.799 82.6665 460.908C97.799 440.101 123.02 436.948 143.197 436.317C158.329 435.056 169.048 432.534 178.506 428.121C190.486 421.815 199.943 407.944 203.096 397.225C205.618 390.289 206.879 382.723 207.51 375.157C208.14 369.482 209.401 363.177 210.662 357.502C210.662 356.872 211.923 356.241 212.554 356.241H213.184C213.815 356.241 215.706 356.872 215.706 358.133C213.815 369.482 210.662 385.245 216.337 398.486C218.859 403.53 223.903 406.052 232.1 406.052C237.144 406.052 242.819 405.422 247.863 404.161C252.277 403.53 256.06 402.9 259.212 402.9C260.473 402.9 262.365 402.9 263.626 402.9C270.562 402.9 276.867 404.161 283.172 405.422C288.847 406.683 293.891 407.944 300.196 407.944C301.457 407.944 302.088 407.944 303.349 407.944C305.24 407.944 307.132 408.574 309.654 408.574C314.698 408.574 317.851 407.313 320.373 405.422C322.265 404.161 321.634 401.639 321.003 399.117V398.486C321.003 397.856 321.004 397.225 320.373 397.225C319.112 393.442 317.851 388.398 320.373 385.876C321.004 385.876 321.634 385.245 321.634 385.245C322.265 385.245 322.895 385.245 322.895 385.876C322.895 387.137 323.526 387.767 323.526 389.028C324.787 393.442 326.048 397.856 328.57 401.639C334.244 409.205 343.702 416.141 354.421 421.815C361.357 426.86 370.184 435.056 370.815 447.036C370.815 452.08 365.771 455.864 361.987 458.386C355.682 461.538 346.855 465.321 340.55 464.691C336.767 464.691 333.614 462.169 333.614 462.169C327.939 456.494 328.57 455.233 324.787 448.297C322.895 445.145 320.373 441.362 317.851 438.209C314.068 434.426 309.654 432.534 303.349 433.165C297.674 433.795 292 435.056 285.064 436.317C283.803 436.317 282.542 437.578 281.911 438.839C281.281 440.101 281.281 441.992 282.542 443.253C285.694 449.558 289.477 454.602 292.63 460.908L293.891 463.43C294.522 464.691 296.413 465.321 297.674 465.321C298.305 465.321 299.566 465.321 300.196 465.321C301.457 465.321 302.088 465.321 303.349 465.321C306.502 465.321 308.393 465.952 309.654 467.843C310.915 469.735 311.546 470.996 312.807 472.888C315.329 477.301 317.22 481.084 321.634 484.237C325.417 487.39 330.461 489.281 335.505 489.281C338.028 489.281 339.919 488.651 342.441 488.02C358.204 482.976 373.337 477.932 387.839 470.366H392.883C394.144 470.366 394.774 470.366 396.036 470.366C401.08 469.735 406.124 469.735 409.907 465.952C414.321 459.016 418.734 452.711 421.887 445.145C425.039 438.839 425.039 432.534 421.887 427.49C412.429 412.988 411.168 408.574 407.385 398.486C406.124 397.856 405.493 397.856 404.232 397.225C401.71 396.595 399.819 395.333 396.666 395.333H396.036C392.883 395.333 390.991 396.595 389.73 398.486L406.754 431.273C408.015 433.795 409.276 436.317 408.646 440.1C408.015 443.884 399.819 457.125 397.297 458.386C396.666 459.016 396.036 459.016 396.036 459.016C396.036 459.016 394.774 459.016 395.405 457.125C396.666 452.08 399.188 438.839 398.558 435.056C397.927 430.643 384.056 407.313 383.425 406.052V405.422C381.534 401.639 379.011 398.486 379.011 394.072C379.011 392.181 380.903 390.92 382.164 390.289C384.686 389.659 387.208 389.028 389.73 388.398C395.405 387.137 401.71 385.876 404.232 382.093C411.168 372.004 414.951 361.285 417.473 346.783C417.473 346.153 418.104 344.892 418.734 344.892C419.365 344.892 419.995 344.892 419.995 346.153C422.517 360.024 419.365 374.526 410.537 386.506C409.907 387.137 409.907 388.398 409.907 389.659C409.907 390.92 411.168 391.55 411.168 391.55C414.321 393.442 426.301 392.181 434.497 387.767C440.803 387.767 447.108 386.506 452.782 385.876C454.674 385.245 456.566 385.245 458.457 384.615C459.088 385.245 459.718 385.245 459.718 385.876C454.674 391.55 451.521 397.856 450.26 406.052C448.999 407.313 447.108 408.574 445.847 410.466C440.172 415.51 434.497 421.185 434.497 428.121C434.497 428.121 434.497 430.643 437.019 430.643C437.65 430.643 438.911 430.012 439.542 430.012C440.803 429.382 441.433 429.382 442.694 429.382C443.325 429.382 443.955 430.012 444.586 431.273L438.28 440.1C435.758 443.884 437.019 447.667 437.65 452.08C438.28 453.972 438.28 455.864 438.911 457.755C440.172 462.169 445.847 464.691 450.26 464.691C458.457 464.06 466.023 461.538 472.959 459.016C474.22 458.386 475.481 458.386 476.742 457.755C484.308 454.602 495.027 453.972 507.638 455.864C517.726 455.233 525.292 448.928 532.228 441.992C535.381 441.992 538.533 443.884 541.686 447.667C552.405 459.016 565.646 464.691 582.039 464.691C582.67 464.691 583.3 464.691 583.931 464.691H585.822C587.714 464.06 587.714 463.43 588.344 462.169C588.344 460.908 587.714 459.647 585.822 459.016L576.365 453.972C568.798 449.558 561.232 443.884 558.71 436.317C556.188 428.121 551.774 420.554 548.622 414.88C547.991 413.619 547.361 412.988 546.73 411.727C545.469 409.835 544.208 407.944 542.947 406.052C553.035 409.836 558.71 417.402 565.646 429.382C570.69 438.839 583.931 448.297 596.541 448.297C598.433 448.297 599.694 448.297 601.585 447.667C602.846 447.667 604.107 446.406 604.107 445.145C604.738 445.145 604.107 443.884 602.846 443.253ZM423.778 294.45C423.778 295.711 423.148 296.342 422.517 296.342C422.517 296.342 421.256 296.342 421.256 295.081C418.734 281.84 416.843 274.904 414.321 269.229C413.06 267.338 412.429 265.446 411.168 264.185C408.646 261.033 406.754 258.51 409.276 254.727C409.907 253.466 411.799 252.836 413.06 252.836C413.69 252.836 414.951 252.836 415.582 253.466C418.104 254.727 420.626 257.88 423.148 262.924C428.823 276.165 423.778 294.45 423.778 294.45ZM507.638 427.49C507.638 427.49 507.007 431.273 505.746 433.165C503.855 434.426 496.919 435.687 493.766 435.687C490.614 435.687 489.353 435.056 488.722 433.795C488.092 432.534 489.353 430.643 489.353 430.643C489.983 430.012 493.766 421.815 501.333 419.293C501.333 419.293 503.855 418.663 506.377 419.293C508.899 420.554 507.638 426.86 507.638 427.49ZM530.336 375.157C529.706 378.309 529.075 379.57 528.445 380.201C527.814 380.831 527.184 382.723 525.292 382.723C522.77 382.723 522.77 379.57 522.77 379.57C522.77 379.57 522.77 371.374 520.879 368.221C518.987 364.438 510.79 353.719 506.377 354.35C505.116 354.35 501.963 356.241 499.441 359.394C496.919 363.177 496.919 363.177 495.658 363.807C495.027 364.438 493.766 363.807 493.136 361.916C492.505 360.024 492.505 358.133 493.136 353.719C494.397 349.305 495.027 348.675 496.288 345.522C496.288 345.522 498.81 339.848 499.441 338.587C501.963 334.803 505.116 334.803 505.116 334.803C505.746 334.803 508.899 334.173 512.051 338.587C515.835 343 515.204 343 515.835 344.261C517.096 346.153 517.726 347.414 520.879 350.566C524.031 353.719 527.184 360.024 528.445 364.438C530.967 368.852 530.967 372.004 530.336 375.157Z" fill="white"/>
<path d="M27.816 463.431C28.4465 464.062 30.3381 465.323 32.2296 465.323C33.4907 465.323 34.7517 464.692 36.0128 464.062C42.9485 460.279 49.8842 447.668 50.5148 447.038C51.1453 445.146 48.6232 443.255 46.1011 440.732H45.4706C44.2095 439.471 41.6875 440.102 40.4264 440.732C39.1654 441.363 38.5349 441.993 37.2738 442.624C33.4907 445.146 29.7076 447.668 25.9244 450.821C24.6634 452.082 24.0329 453.973 23.4023 455.865C23.4023 457.126 23.4023 458.387 24.0329 459.018C24.6634 459.648 27.1855 462.801 27.816 463.431Z" fill="white"/>
</svg>
