<svg width="764" height="264" viewBox="0 0 764 264" fill="none" xmlns="http://www.w3.org/2000/svg">
<path d="M631.193 0.000218149C599.656 0.000218149 570.725 11.0638 548.026 29.5031C524.537 10.3683 495.154 -0.054985 464.858 0.000218149C433.32 0.000218149 404.39 11.0638 381.69 29.5031C358.202 10.3683 328.819 -0.054985 298.523 0.000218149C266.985 0.000218149 238.055 11.0638 215.355 29.5031C195.987 13.7861 172.563 3.87823 147.796 0.927286C123.028 -2.02366 97.9314 2.10312 75.413 12.8295C52.8946 23.5559 33.8761 40.4429 20.5609 61.5342C7.24568 82.6254 0.178711 107.058 0.178711 132C0.178711 156.943 7.24568 181.375 20.5609 202.466C33.8761 223.557 52.8946 240.444 75.413 251.171C97.9314 261.897 123.028 266.024 147.796 263.073C172.563 260.122 195.987 250.214 215.355 234.497C238.055 252.937 266.985 264 298.523 264C330.06 264 358.991 252.937 381.69 234.497C404.39 252.937 433.32 264 464.858 264C496.396 264 525.326 252.937 548.026 234.497C564.432 247.811 583.795 256.992 604.487 261.269C625.179 265.545 646.595 264.791 666.936 259.071C687.276 253.352 705.946 242.832 721.376 228.398C736.807 213.964 748.547 196.037 755.609 176.123C762.672 156.209 764.851 134.891 761.964 113.96C759.076 93.0289 751.206 73.097 739.015 55.8395C726.824 38.582 710.668 24.5031 691.906 14.7864C673.143 5.06957 652.322 -0.00121346 631.193 0.000218149ZM548.026 191.324C535.641 174.024 528.992 153.276 529.014 132C529.014 109.873 536.072 89.399 548.026 72.6765C559.979 89.399 567.037 109.873 567.037 132C567.037 154.127 559.979 174.601 548.026 191.324ZM381.69 191.324C369.306 174.024 362.657 153.276 362.679 132C362.679 109.873 369.737 89.399 381.69 72.6765C393.644 89.399 400.702 109.873 400.702 132C400.702 154.127 393.644 174.601 381.69 191.324ZM215.355 191.324C202.971 174.024 196.322 153.276 196.344 132C196.344 109.873 203.401 89.399 215.355 72.6765C227.309 89.399 234.367 109.873 234.367 132C234.367 154.127 227.309 174.601 215.355 191.324ZM30.0085 132C30.016 112.934 35.3578 94.2505 45.4298 78.062C55.5019 61.8735 69.9024 48.826 87.0029 40.3948C104.103 31.9636 123.222 28.4851 142.196 30.3526C161.171 32.2202 179.244 39.3593 194.373 50.9626C176.288 74.1006 166.482 102.633 166.523 132C166.523 162.552 176.951 190.688 194.373 213.038C179.244 224.641 161.171 231.78 142.196 233.648C123.222 235.515 104.103 232.037 87.0029 223.606C69.9024 215.174 55.5019 202.127 45.4298 185.938C35.3578 169.75 30.016 151.066 30.0085 132ZM236.338 213.038C254.422 189.9 264.228 161.367 264.188 132C264.188 101.448 253.76 73.3123 236.338 50.9626C254.159 37.234 276.027 29.7992 298.523 29.821C321.922 29.821 343.477 37.7054 360.708 50.9626C342.623 74.1006 332.818 102.633 332.858 132C332.858 162.552 343.286 190.688 360.708 213.038C342.887 226.766 321.018 234.201 298.523 234.179C276.027 234.201 254.159 226.766 236.338 213.038ZM402.673 213.038C420.758 189.9 430.563 161.367 430.523 132C430.523 101.448 420.095 73.3123 402.673 50.9308C419.904 37.7054 441.459 29.7892 464.858 29.7892C488.257 29.7892 509.812 37.6736 527.043 50.9308C508.958 74.0688 499.153 102.601 499.193 131.968C499.193 162.52 509.621 190.656 527.043 213.006C509.222 226.735 487.354 234.169 464.858 234.148C442.366 234.179 420.498 226.755 402.673 213.038ZM631.193 234.179C608.698 234.201 586.829 226.766 569.008 213.038C587.071 189.888 596.874 161.363 596.858 132C596.858 101.448 586.43 73.3123 569.008 50.9626C581.89 41.0696 596.944 34.3898 612.923 31.4773C628.901 28.5647 645.344 29.5033 660.888 34.2151C676.431 38.9269 690.628 47.2763 702.3 58.5708C713.972 69.8653 722.783 83.7796 728.004 99.1599C733.224 114.54 734.702 130.943 732.317 147.009C729.931 163.075 723.749 178.341 714.285 191.54C704.821 204.74 692.346 215.493 677.896 222.909C663.445 230.324 647.435 234.188 631.193 234.179Z" fill="white"/>
</svg>
