<svg width="845" height="330" viewBox="0 0 845 330" fill="none" xmlns="http://www.w3.org/2000/svg">
<path d="M98.5153 74.0988H172.474L158.483 48.8251H409.428V74.0285H417.794V40.1075H75.5967L98.5153 74.0988ZM105.616 107.422H417.724V82.1484H101.573L105.616 107.422ZM184.882 149.744H112.47L106.846 115.261H417.794V149.744H409.393V123.346H182.246L184.882 149.744ZM300.846 174.069H417.759V192.172H300.846V174.069ZM427.004 40.1075H545.006V90.8659H427.004V40.1075ZM129.308 235.865C131.206 238.888 134.756 242.403 146.532 245.742C151.664 247.043 157.253 248.344 164.635 250.031L167.447 250.699H292.656V232.772H127.656C128.124 233.849 128.663 234.881 129.273 235.865H129.308ZM292.656 208.482H122.137L113.771 157.864H292.656V208.482ZM300.811 279.523C344.504 288.416 387.177 296.676 417.829 301.668V216.672H300.811V279.523ZM732.327 149.744H553.056V98.9507H740.518L732.327 149.744ZM553.056 56.242V74.2746L745.861 74.2043L757.953 56.242H553.056ZM0.548828 0L57.3532 83.2733C63.575 118.635 79.85 209.783 81.713 218.606L81.924 219.73C87.1263 244.547 90.3251 259.768 137.814 271.508C201.965 287.326 348.616 318.013 422.329 330C496.041 318.013 642.762 287.291 706.948 271.508C754.402 259.768 757.566 244.547 762.803 219.73L763.014 218.606C764.877 209.712 781.152 118.635 787.374 83.2733L844.179 0H0.548828ZM754.684 82.0781L744.947 142.433C739.322 177.373 735.561 200.678 733.698 211.013L733.452 212.243L733.03 214.704C728.566 239.028 726.598 249.925 701.043 257.061C647.753 270.172 493.369 303.109 422.399 314.217C351.464 303.109 197.079 270.137 143.825 257.061C118.27 249.925 116.302 239.028 111.838 214.669L111.17 211.013C109.307 200.889 105.686 178.322 100.273 144.577L90.1845 82.043L45.4018 15.6071H799.396L754.684 82.0781ZM435.37 192.172H427.004V157.864H731.062L725.438 192.242H654.995C656.084 186.231 658.158 169.077 658.475 166.582H435.37V192.172ZM427.004 225.284H719.532L724.243 200.116H427.004V225.284ZM427.004 115.296H545.042V133.434H427.004V115.296ZM427.004 232.772V301.633C501.349 288.978 645.75 259.276 698.301 245.672C710.182 242.614 713.697 238.888 715.595 235.865C716.223 234.888 716.753 233.852 717.177 232.772H427.004ZM507.711 277.835L493.123 280.718C485.741 282.194 469.748 285.112 455.687 287.713L435.405 291.439V241.454H642.094C632.603 253.054 613.551 256.815 507.711 277.835Z" fill="white"/>
</svg>
