<svg width="561" height="500" viewBox="0 0 561 500" fill="none" xmlns="http://www.w3.org/2000/svg">
<path fill-rule="evenodd" clip-rule="evenodd" d="M312.821 442.77C260.951 442.77 214.151 421.86 179.701 387.92H233.211C233.211 387.92 386.991 113.91 387.531 112.82C388.281 111.7 387.901 110.97 386.831 110.97H324.071C322.801 110.97 322.611 111.35 322.261 111.89C321.891 112.44 235.561 264.49 235.561 264.49H122.761C122.394 259.669 122.217 254.835 122.231 250C122.231 143.62 207.451 57.22 312.831 57.22C366.501 57.22 415.111 79.79 449.751 116.11C434.711 141.79 367.231 257.69 358.171 274.57C352.911 262.27 328.601 264.67 316.091 264.47C310.641 273.64 285.091 322.44 285.091 322.44C285.091 322.44 299.211 322.26 311.911 322.44C324.251 322.64 325.711 335.64 320.811 343.9C315.901 352.16 295.761 387.9 295.761 387.9H360.521C360.521 387.9 439.971 247.6 485.121 167.83C497.224 193.529 503.471 221.594 503.411 250C503.411 356.39 418.011 442.76 312.811 442.76M136.191 322.45H202.011L170.261 378.02C155.935 361.488 144.422 342.714 136.181 322.45M312.811 0C176.251 0 65.6412 111.9 65.6412 250.01C65.6412 254.95 65.8012 259.71 65.9912 264.49H33.7112C31.9012 264.49 30.9912 265.59 30.2612 266.89C29.7212 268.17 1.0612 319.16 0.331199 320.44C-0.208801 321.72 -0.208801 322.45 1.2512 322.45H76.1512C106.791 425.15 201.111 500 312.811 500C449.391 500 560.011 388.1 560.011 250.01C560.011 111.89 449.381 0 312.811 0Z" fill="white"/>
</svg>
