<svg width="270" height="386" viewBox="0 0 270 386" fill="none" xmlns="http://www.w3.org/2000/svg">
<path d="M227.71 365.206C228.254 363.01 228.781 360.965 229.269 358.91C230.119 355.328 230.953 351.743 231.775 348.155C232.22 346.214 232.619 344.262 233.051 342.317C233.417 340.666 233.783 339.015 234.179 337.371C234.702 335.203 235.256 333.043 235.792 330.878C236.049 329.839 236.627 329.104 237.752 329.055C240.526 328.933 243.302 328.822 246.079 328.79C247.587 328.772 249.097 328.984 250.607 328.987C254.368 328.996 258.113 329.131 261.791 330.01C262.305 330.132 262.854 330.284 263.277 330.579C267.054 333.212 269.361 336.782 269.683 341.413C269.849 343.81 269.887 346.271 269.539 348.638C269.028 352.114 267.789 355.397 265.688 358.289C263.902 360.749 261.985 363.077 259.225 364.513C257.85 365.229 257.61 366.36 257.872 367.73C258.122 369.037 258.354 370.347 258.64 371.646C259.445 375.3 260.289 378.946 261.083 382.603C261.243 383.342 261.251 384.113 261.337 384.948C260.727 385.032 260.318 385.133 259.908 385.138C257.789 385.164 255.668 385.111 253.552 385.195C252.181 385.25 251.053 384.395 250.628 382.94C249.85 380.281 249.281 377.56 248.653 374.858C248.243 373.093 247.927 371.306 247.488 369.549C247.094 367.97 246.709 367.714 245.086 367.702C243.451 367.69 241.817 367.689 240.182 367.703C238.587 367.716 238.536 367.712 238.081 369.321C237.522 371.294 237.054 373.293 236.559 375.284C235.847 378.154 235.143 381.027 234.44 383.9C234.222 384.794 233.68 385.205 232.744 385.191C230.444 385.155 228.142 385.206 225.843 385.129C224.283 385.077 223.794 384.468 224.003 382.903C224.203 381.407 224.497 379.922 224.804 378.443C225.234 376.375 225.718 374.318 226.172 372.254C226.678 369.955 227.176 367.653 227.71 365.206ZM244.693 357.457C246.848 357.198 249.006 356.953 251.157 356.667C251.497 356.622 251.818 356.404 252.137 356.244C253.802 355.407 255.015 354.101 256.024 352.562C257.983 349.576 258.188 346.285 258.006 342.836C257.894 340.723 255.705 338.361 253.41 338.186C251.007 338.004 248.578 338.138 246.161 338.145C245.396 338.147 244.955 338.512 244.783 339.297C244.239 341.766 243.594 344.213 243.089 346.689C242.476 349.698 241.959 352.727 241.414 355.75C241.221 356.817 241.621 357.338 242.72 357.44C243.26 357.49 243.808 357.454 244.693 357.457Z" fill="white"/>
<path d="M26.1884 365.079C24.3033 362.837 21.8244 361.677 19.4875 360.306C17.5209 359.152 15.5057 358.052 13.6667 356.716C10.6216 354.503 9.00174 351.386 8.67942 347.65C8.27972 343.017 8.93395 338.617 11.7594 334.73C13.7075 332.05 16.3377 330.317 19.3576 329.114C23.3766 327.512 27.5999 327.138 31.8347 327.551C35.0072 327.86 38.198 328.429 41.2585 329.308C44.0625 330.113 44.334 330.856 43.8852 333.581C43.7115 334.635 43.2696 335.67 42.8053 336.644C42.4259 337.441 41.5677 337.539 40.7639 337.526C38.5861 337.489 36.4087 337.426 34.2312 337.375C31.3887 337.308 28.5463 337.205 25.7039 337.207C25.0899 337.208 24.3947 337.47 23.8767 337.819C21.6521 339.317 19.9303 341.17 19.7567 344.06C19.6392 346.016 20.1421 347.67 21.8766 348.732C23.8276 349.926 25.8295 351.037 27.8018 352.197C29.821 353.385 31.8694 354.528 33.8362 355.797C36.4998 357.517 37.8234 360.153 38.2219 363.186C38.7218 366.99 38.6395 370.806 37.3177 374.475C35.9342 378.314 33.4012 381.231 29.8608 383.243C26.9313 384.908 23.7672 385.883 20.3931 385.96C17.4935 386.027 14.5829 386.024 11.6906 385.841C10.0844 385.739 8.50373 385.213 6.91527 384.861C5.79475 384.613 4.68305 384.325 3.56284 384.075C1.3458 383.581 0.715571 382.728 1.06824 380.529C1.33289 378.879 1.67211 377.241 1.96068 375.691C3.95291 375.691 5.75868 375.649 7.56192 375.7C11.8543 375.82 16.145 376.079 20.4373 376.101C24.4783 376.122 28.0368 371.831 27.3662 367.852C27.2104 366.928 26.6532 366.071 26.1884 365.079Z" fill="white"/>
<path d="M125.334 340.392C125.897 337.747 126.21 335.206 127.033 332.763C127.37 331.761 127.361 330.642 127.526 329.464C130.873 329.464 134.168 329.464 137.414 329.464C137.484 329.644 137.534 329.706 137.523 329.754C137.156 331.368 136.789 332.982 136.409 334.593C136.232 335.344 136.028 336.088 135.839 336.835C135.693 337.416 135.553 337.997 135.408 338.578C135.22 339.329 135.036 340.081 134.84 340.829C134.662 341.508 134.449 342.178 134.291 342.861C134.17 343.386 134.083 343.922 134.033 344.458C133.955 345.293 134.076 346.165 133.361 346.831C133.203 346.978 133.108 347.264 133.101 347.49C133.059 348.822 132.717 350.067 132.333 351.346C131.942 352.647 131.736 354.014 131.391 355.346C131.021 356.776 130.664 358.236 130.278 359.676C129.741 361.684 129.158 363.681 128.621 365.689C128.223 367.18 127.952 368.711 127.469 370.173C126.893 371.918 126.308 373.691 125.446 375.303C124.115 377.794 122.395 380.021 120.011 381.656C117.774 383.19 115.368 384.231 112.72 384.935C110.283 385.582 107.878 385.91 105.393 385.75C104.567 385.696 103.752 385.457 102.935 385.29C102.284 385.157 101.639 384.886 100.989 384.881C97.6617 384.857 94.996 383.318 92.6696 381.165C91.2557 379.857 90.1898 378.287 90.3333 376.138C90.4581 374.268 90.3599 372.384 90.3836 370.507C90.4011 369.127 90.247 367.712 91.0776 366.465C91.1738 366.321 91.2433 366.117 91.2302 365.948C91.0407 363.507 91.8325 361.182 92.3016 358.861C92.7685 356.55 92.8958 354.138 93.8254 351.918C93.961 351.595 93.9681 351.208 93.9906 350.848C94.058 349.768 93.962 348.656 94.7429 347.745C94.8524 347.617 94.8906 347.411 94.9214 347.235C95.2495 345.357 95.5555 343.475 95.9012 341.6C95.9868 341.136 96.1808 340.689 96.3494 340.244C96.4755 339.91 96.7611 339.594 96.7674 339.266C96.7933 337.923 97.1983 336.698 97.5972 335.428C98.1846 333.558 98.4848 331.598 98.9106 329.662C100.179 329.253 106.525 329.179 108.744 329.556C108.803 329.655 108.939 329.801 108.911 329.847C107.925 331.46 108.686 333.577 107.399 335.102C107.328 335.186 107.318 335.329 107.297 335.447C106.978 337.207 106.684 338.973 106.332 340.726C106.192 341.426 105.931 342.102 105.715 342.785C105.643 343.013 105.445 343.24 105.465 343.453C105.652 345.5 104.786 347.376 104.263 349.239C103.7 351.25 103.896 353.43 102.838 355.314C102.64 355.665 102.665 356.138 102.567 356.55C102.36 357.414 101.987 358.269 101.956 359.137C101.879 361.267 100.979 363.214 100.737 365.291C100.584 366.596 100.558 367.862 100.112 369.172C99.4538 371.11 100.006 373.136 101.009 374.895C101.549 375.843 102.523 376.369 103.758 376.34C106.3 376.28 108.849 376.412 111.388 376.296C113.551 376.197 115.181 375.142 116.238 373.149C117.143 371.445 117.805 369.729 118.095 367.792C118.338 366.175 119.068 364.634 119.553 363.05C119.693 362.595 119.711 362.103 119.825 361.638C119.981 361 120.182 360.374 120.35 359.74C120.518 359.105 120.68 358.469 120.828 357.83C121.203 356.203 121.558 354.572 121.941 352.947C122.173 351.963 122.433 350.986 122.695 350.009C122.989 348.914 123.3 347.825 123.599 346.732C124.166 344.668 124.729 342.602 125.334 340.392Z" fill="white"/>
<path d="M215.49 381.734C215.268 382.513 215.125 383.158 214.987 383.785C213.616 384.753 212.089 384.874 210.489 384.868C202.496 384.837 194.503 384.852 186.51 384.85C186.208 384.85 185.9 384.871 185.603 384.828C183.527 384.525 183.147 384.077 183.368 381.985C183.448 381.225 183.736 380.488 183.913 379.737C184.354 377.875 184.782 376.01 185.224 374.149C185.388 373.46 185.571 372.775 185.757 372.092C185.82 371.86 185.951 371.644 185.995 371.41C186.366 369.411 186.719 367.409 187.091 365.411C187.177 364.946 187.306 364.487 187.429 364.03C187.629 363.284 187.868 362.547 188.043 361.795C188.518 359.76 188.963 357.718 189.431 355.681C189.513 355.328 189.687 354.995 189.754 354.642C190.111 352.762 190.384 350.864 190.807 349C191.242 347.084 191.826 345.202 192.322 343.3C192.443 342.835 192.44 342.34 192.549 341.871C192.752 340.997 192.992 340.132 193.225 339.266C193.271 339.092 193.385 338.935 193.419 338.761C193.794 336.819 194.119 334.865 194.545 332.934C194.8 331.778 195.21 330.657 195.59 329.389C205.98 329.389 216.375 329.389 227.022 329.389C227.047 330.064 227.204 330.784 227.074 331.449C226.777 332.972 226.426 334.498 225.921 335.962C225.7 336.6 225.105 337.137 224.237 337.122C223.452 337.108 222.667 337.229 221.881 337.231C217.097 337.242 212.313 337.236 207.53 337.236C204.593 337.235 204.097 337.716 203.168 340.502C202.034 343.905 202.126 347.389 202.166 350.882C202.17 351.287 202.339 351.689 202.489 352.343C204.311 352.343 206.115 352.32 207.918 352.351C209.042 352.371 210.175 352.161 211.256 352.847C211.697 353.127 212.437 352.921 213.04 352.964C214.341 353.058 215.641 353.17 217.069 353.286C216.986 354.788 217.083 356.03 216.57 357.249C216.294 357.906 216.188 358.641 216.06 359.351C215.759 361.019 215.761 361.044 214.133 361.082C211.894 361.135 209.653 361.139 207.416 361.226C206.712 361.253 206.018 361.487 205.316 361.608C204.786 361.699 204.252 361.812 203.718 361.824C202.326 361.856 200.931 361.8 199.54 361.852C198.353 361.896 197.897 362.312 197.738 363.469C197.421 365.785 196.644 367.975 196.03 370.212C195.75 371.232 195.736 372.402 195.917 373.449C196.102 374.52 197.013 375.194 198.107 375.317C200.858 375.626 203.613 375.938 206.375 376.087C209.093 376.234 211.822 376.177 214.546 376.224C214.954 376.231 215.36 376.315 215.913 376.381C215.944 378.184 216.252 379.91 215.49 381.734Z" fill="white"/>
<path d="M54.8926 374.859C53.3964 374.612 52.6798 375.495 52.1736 376.446C51.1115 378.442 50.1801 380.508 49.1963 382.546C48.7037 383.566 48.0402 384.381 46.8373 384.585C44.2041 385.031 41.57 384.834 38.7266 384.795C38.8254 384.016 38.778 383.394 38.9907 382.88C40.1087 380.176 41.2682 377.488 42.4632 374.818C43.0943 373.407 43.8639 372.059 44.5059 370.653C45.6979 368.043 46.8277 365.404 48.0105 362.789C49.0923 360.398 50.2455 358.038 51.3017 355.636C52.3845 353.173 53.3641 350.665 54.4346 348.196C55.0975 346.668 55.8692 345.187 56.5504 343.666C57.7204 341.054 58.8529 338.426 60.0106 335.808C60.9515 333.681 61.9063 331.56 62.8697 329.403C69.1417 329.403 75.2986 329.403 81.6189 329.403C81.6657 330.011 81.7458 330.532 81.7398 331.052C81.6269 340.8 81.8032 350.563 81.2864 360.29C80.8849 367.849 80.655 375.399 80.5333 382.961C80.508 384.534 80.2604 384.808 78.7555 384.835C76.1685 384.882 73.58 384.848 70.8172 384.848C70.778 383.857 70.6642 383.084 70.7338 382.328C70.9095 380.417 70.4086 378.611 69.9918 376.791C69.7728 375.835 68.4711 374.892 67.2219 374.847C64.8632 374.76 62.5016 374.723 60.1411 374.721C58.4468 374.72 56.7523 374.808 54.8926 374.859ZM59.4251 361.068C59.1295 361.915 58.7109 362.741 58.5669 363.613C58.3482 364.937 58.9631 365.816 60.2897 365.826C63.0688 365.848 65.8512 365.695 68.6288 365.548C69.4412 365.505 69.8674 364.971 69.944 364.093C70.2116 361.023 70.5473 357.959 70.8352 354.892C70.9482 353.687 70.8657 352.449 71.1104 351.276C71.8227 347.86 71.6951 344.411 71.7349 340.963C71.7487 339.766 71.4173 338.83 70.0187 338.268C69.3658 338.93 68.404 339.525 68.0051 340.382C66.8945 342.769 66.035 345.271 65.0428 347.714C64.3212 349.491 63.5438 351.245 62.7957 353.011C61.6972 355.604 60.6026 358.199 59.4251 361.068Z" fill="white"/>
<path d="M137.925 374.783C138.369 372.52 138.713 370.39 139.181 368.287C139.637 366.244 140.227 364.231 140.741 362.2C140.843 361.793 140.843 361.36 140.933 360.949C141.138 360.013 141.364 359.082 141.593 358.152C141.65 357.918 141.78 357.701 141.825 357.466C142.187 355.588 142.481 353.694 142.905 351.83C143.355 349.85 143.975 347.91 144.427 345.931C144.883 343.941 145.199 341.92 145.624 339.923C145.973 338.281 146.394 336.654 146.778 335.019C147.011 334.031 147.292 333.05 147.448 332.05C147.726 330.274 148.545 329.349 150.335 329.292C153.113 329.203 155.895 329.242 158.675 329.25C162.367 329.261 166.06 329.296 169.753 329.318C171.509 329.328 173.265 329.364 175.02 329.32C175.822 329.299 176.388 329.55 176.876 330.185C177.685 331.237 178.536 332.26 179.41 333.259C180.56 334.574 181.291 336.063 181.253 337.825C181.197 340.483 181.339 343.188 180.877 345.78C180.47 348.064 179.282 350.182 177.448 351.792C176.406 352.707 175.362 353.619 174.313 354.526C173.419 355.299 173.392 355.996 174.128 356.958C175.037 358.147 176.103 359.279 176.721 360.611C177.815 362.969 178.527 365.447 177.729 368.132C177.254 369.733 177.224 371.44 176.495 373.001C174.623 377.007 172.279 380.543 167.95 382.278C166.843 382.721 165.779 383.271 164.664 383.688C164.116 383.893 163.499 383.953 162.907 383.998C161.22 384.128 159.528 384.191 157.842 384.326C151.272 384.851 144.698 385.245 138.102 385.05C136.29 384.996 136.03 384.748 136.279 383.039C136.617 380.722 137.012 378.412 137.415 376.105C137.486 375.698 137.72 375.319 137.925 374.783ZM150.358 375.158C153.386 375.176 156.414 375.169 159.441 375.222C161.138 375.252 162.488 374.599 163.585 373.357C164.143 372.725 164.723 372.102 165.196 371.409C166.682 369.235 167.411 366.897 166.711 364.233C166.437 363.192 165.824 362.43 164.88 362.176C163.311 361.754 161.69 361.413 160.073 361.308C157.841 361.163 155.592 361.31 153.353 361.25C152.353 361.224 151.709 361.551 151.455 362.522C150.952 364.442 150.466 366.365 149.973 368.287C149.675 369.45 149.334 370.604 149.097 371.779C148.955 372.483 148.934 373.221 148.938 373.943C148.942 374.627 149.287 375.088 150.358 375.158ZM170.964 343.126C170.849 340.064 168.78 337.791 165.879 337.949C165.344 337.978 164.798 337.741 164.261 337.756C162.455 337.805 160.65 337.892 158.847 338.007C157.997 338.061 157.365 338.504 157.051 339.326C156.69 340.27 156.235 341.193 156.008 342.17C155.411 344.747 154.849 347.337 154.406 349.944C154.175 351.307 154.475 351.562 155.843 351.579C158.082 351.606 160.329 351.684 162.559 351.536C163.907 351.447 165.365 351.231 166.539 350.621C169.374 349.147 170.759 346.612 170.964 343.126Z" fill="white"/>
<path d="M166.484 33.6677C167.359 33.6231 167.997 33.5784 168.979 33.5098C169.022 27.9072 168.995 22.386 169 16.8657C169.005 11.4014 169.001 5.93715 169.001 0.689269C169.226 0.414148 169.27 0.34711 169.327 0.294641C169.387 0.239898 169.454 0.171843 169.527 0.157065C169.844 0.0933778 170.163 0.000943092 170.482 0.00091295C203.072 -0.00201843 235.661 0.00210935 268.251 0.0132974C268.567 0.013417 268.884 0.113839 269.165 0.161493C269.704 1.8967 269.932 95.7498 269.394 100.629C268.51 100.666 267.571 100.739 266.631 100.739C257.402 100.747 248.172 100.742 238.942 100.741C238.068 100.741 237.195 100.741 236.066 100.741C236.066 112.045 236.066 123.03 236.066 134.363C224.757 134.363 213.707 134.363 202.52 134.363C202.52 145.7 202.52 156.685 202.52 167.97C205.332 168.222 208.082 168.049 210.818 168.081C213.595 168.112 216.372 168.088 219.149 168.088C221.926 168.088 224.704 168.088 227.481 168.088C230.235 168.088 232.989 168.088 236.002 168.088C236.002 179.372 236.002 190.356 236.002 201.694C241.778 201.728 247.3 201.708 252.822 201.712C258.279 201.715 263.736 201.712 269.127 201.712C269.682 203.593 269.877 298.563 269.394 301.963C267.594 302.466 172.174 302.615 169.063 302.069C169.063 291.143 169.063 280.161 169.063 268.836C163.274 268.7 157.755 268.789 152.239 268.773C146.71 268.757 141.181 268.77 135.376 268.77C135.376 257.492 135.376 246.503 135.376 235.35C124.031 235.35 112.967 235.35 101.625 235.35C101.341 240.906 101.531 246.428 101.497 251.943C101.463 257.497 101.489 263.051 101.489 268.605C101.489 274.16 101.489 279.714 101.489 285.268C101.489 290.814 101.489 296.359 101.489 301.854C99.6072 302.48 4.009 302.656 0.976562 302.064C0.976562 201.495 0.976562 100.902 0.976562 0.14836C34.4558 0.14836 67.819 0.14836 101.453 0.14836C101.453 22.4691 101.453 44.6467 101.453 66.7355C103.565 67.4122 132.916 67.4534 135.38 66.7859C135.38 55.8894 135.38 44.9052 135.38 33.6678C145.872 33.6678 156.06 33.6678 166.484 33.6677Z" fill="white"/>
</svg>
