<svg width="500" height="500" viewBox="0 0 500 500" fill="none" xmlns="http://www.w3.org/2000/svg">
<g clip-path="url(#clip0_1258_107)">
<path fill-rule="evenodd" clip-rule="evenodd" d="M250 0C111.925 0 0 111.925 0 250C0 388.075 111.925 500 250 500C388.075 500 500 388.075 500 250C500 111.925 388.075 0 250 0ZM45.4 132.5C65.8783 96.9534 95.2598 67.3519 130.653 46.6089C166.045 25.8659 206.23 14.6965 247.25 14.2L214.925 228.45L44.025 366.525C23.8614 330.773 13.3818 290.375 13.6229 249.33C13.8641 208.284 24.8177 168.013 45.4 132.5ZM250.975 487C209.894 487.245 169.464 476.739 133.7 456.526C97.9353 436.312 68.0804 407.095 47.1 371.775L250.1 287.75L453.85 370.5C433.077 405.877 403.441 435.228 367.864 455.657C332.288 476.087 292 486.89 250.975 487ZM284.125 231.3L253.3 14.2C294.142 14.8188 334.127 26.0164 369.35 46.7C404.581 67.3506 433.865 96.7721 454.35 132.1C474.91 167.374 485.957 207.383 486.408 248.21C486.859 289.036 476.7 329.28 456.925 365L284.125 231.3Z" fill="white"/>
</g>
<defs>
<clipPath id="clip0_1258_107">
<rect width="500" height="500" fill="white"/>
</clipPath>
</defs>
</svg>
