<svg width="1001" height="386" viewBox="0 0 1001 386" fill="none" xmlns="http://www.w3.org/2000/svg">
<path d="M358.138 83.9864C391.256 39.9623 443.94 11.4939 503.276 11.4939C564.456 11.4939 618.563 41.7586 651.444 88.1342C654.282 85.6742 657.084 83.2548 659.835 80.9862L660.359 81.4975V81.0099C625.377 32.0298 568.057 0.101074 503.276 0.101074C439.705 0.101074 383.32 30.848 348.178 78.2828L348.204 78.3935C351.319 79.9513 354.423 81.509 357.538 83.5781C357.739 83.7145 357.939 83.8506 358.138 83.9864Z" fill="white"/>
<path d="M351.872 293.146C352.183 300.809 354.421 308.558 364.469 309.959C397.763 349.433 447.59 374.506 503.276 374.506C560.427 374.506 611.405 348.097 644.675 306.815C646.54 304.502 648.011 302.621 650.371 299.364C652.342 296.643 654.239 293.865 656.06 291.033C657.406 295.949 659.258 300.785 660.855 304.292C625.921 353.667 568.365 385.899 503.276 385.899C437.54 385.899 379.486 353.022 344.661 302.812C344.808 302.499 344.951 302.186 345.088 301.876C345.088 301.876 348.279 296.131 350.406 290.899C350.89 291.652 351.378 292.401 351.872 293.146Z" fill="white"/>
<path fill-rule="evenodd" clip-rule="evenodd" d="M343.043 141.142C346.158 148.919 346.158 158.777 344.077 166.554C343.554 167.077 343.043 167.077 342.52 166.554C340.962 159.3 339.404 152.558 336.812 145.815C335.254 141.665 330.07 138.562 332.662 133.889C333.697 132.854 335.777 132.854 336.812 133.377C339.939 135.435 341.497 138.55 343.043 141.142ZM422.904 211.146C428.612 217.365 432.239 224.63 430.681 233.441C429.646 234.999 430.158 237.591 427.565 238.103C426.531 238.614 425.484 237.58 425.484 236.545C424.973 231.884 424.973 227.211 422.369 223.584C419.253 220.468 416.15 214.772 410.965 214.772C407.339 215.807 404.746 219.957 402.665 222.549C402.665 223.061 402.142 223.061 401.631 222.549C399.55 217.876 403.7 213.738 405.258 209.588C408.373 206.472 407.327 198.184 414.069 200.776C418.754 203.369 419.789 208.03 422.904 211.146ZM412.535 270.257C413.046 273.372 413.046 277.51 409.943 279.591C406.827 280.626 403.2 281.149 399.574 280.626C398.539 280.114 397.504 279.591 398.016 278.557C399.574 273.895 404.235 269.222 408.908 268.187C409.943 268.699 412.012 268.187 412.535 270.257ZM48.5107 88.2503C60.4376 91.3658 73.3989 91.3658 82.2222 100.7C86.8835 106.919 87.4067 116.777 83.7799 123.52C77.0376 135.446 63.0417 141.665 54.2185 152.035C45.9184 159.288 42.8149 170.18 45.4071 180.55C48.5226 189.884 57.8572 196.626 67.1917 197.138C81.7108 197.661 93.1145 189.884 105.041 183.142C116.968 174.842 127.86 163.961 141.856 160.323C150.668 157.207 161.037 158.765 169.337 155.138C179.195 153.057 186.448 145.28 193.714 138.538C202.014 131.796 211.86 127.646 223.275 128.169C233.121 129.727 238.829 120.392 245.571 114.684C256.975 104.315 272.017 103.281 285.502 97.0498C294.836 93.9343 302.613 87.192 311.424 82.5307C319.724 78.9039 331.651 78.3807 339.939 81.4962C345.647 84.0885 351.343 86.6807 356.016 90.3075L396.458 124.007C396.981 125.565 398.527 126.076 399.574 127.123C410.977 141.118 423.427 154.603 432.239 169.645C435.354 174.83 436.389 180.538 437.946 186.234C440.015 209.053 446.246 229.268 453.5 248.983C455.581 252.099 459.719 254.168 461.8 257.283C468.019 266.095 472.169 277.51 482.538 283.206L488.757 286.321C489.269 286.845 489.269 287.879 488.757 288.402L487.723 289.437C475.273 291.506 465.95 283.729 459.719 274.918C455.569 267.141 450.385 258.318 441.573 255.214C441.05 255.214 440.539 255.737 440.539 255.737C441.573 258.33 444.689 260.922 445.723 263.514C449.35 269.222 452.465 274.918 454.023 280.626C456.092 286.845 462.835 291.518 468.542 295.145L476.842 299.295C477.877 299.806 478.4 301.364 477.366 302.41L476.331 302.933C462.846 303.457 450.92 298.783 441.585 288.938C439.516 286.345 436.4 284.276 433.285 284.276C427.066 289.461 421.358 294.645 413.058 295.168C404.758 293.611 395.424 293.611 388.17 296.726C381.428 299.318 374.685 301.911 366.909 302.434C363.282 302.434 359.132 300.876 358.097 297.249C358.097 293.099 354.982 287.915 357.586 283.254L362.77 275.477C362.77 274.442 362.247 273.408 361.213 273.408C359.132 272.896 355.505 276.523 354.994 272.896C355.505 265.12 362.77 260.446 367.955 255.262C368.99 249.043 371.582 243.858 375.732 239.185C375.732 238.662 375.209 237.627 374.174 237.627C367.955 238.662 361.213 240.219 354.47 240.219C348.763 243.335 342.02 245.404 335.801 243.335C334.244 242.3 334.767 240.743 335.278 239.708C342.02 230.374 344.613 218.447 343.055 206.52C342.532 205.997 342.532 204.962 341.497 204.962C340.463 204.962 340.463 205.997 339.939 206.52C338.382 217.412 334.755 226.224 329.047 235.035C324.386 239.708 317.643 239.185 311.936 241.254C310.378 241.777 308.82 243.335 308.82 244.881C308.82 248.508 311.412 251.623 312.97 254.739L325.932 278.592C326.443 285.334 323.339 291.554 321.782 297.261C322.305 298.296 323.339 297.773 324.374 297.261C329.035 293.111 332.151 287.927 333.708 282.219C334.232 279.627 333.197 276.511 332.151 274.442L318.666 247.996C319.701 246.439 321.782 246.439 323.327 245.927C326.443 245.927 329.035 247.485 332.139 248.519C335.254 256.819 338.358 264.596 344.066 271.85C345.1 276 346.658 282.219 343.542 285.846C340.427 291.554 337.323 296.738 333.685 302.434C330.058 306.061 324.873 305.549 320.2 306.061H316.05C304.123 312.28 291.673 316.43 278.712 320.58C273.004 323.172 266.785 321.091 262.124 317.464C257.462 313.838 255.905 308.653 252.789 304.503C249.162 300.353 243.978 303.98 239.828 301.388C236.201 295.68 233.085 290.495 229.97 284.799C229.97 283.242 229.97 281.684 231.528 280.649C236.189 279.092 240.862 279.092 246.047 278.58C250.708 278.057 255.381 279.092 258.497 282.207C264.716 289.461 266.797 298.795 276.131 303.469C282.874 303.98 289.093 301.911 295.324 298.795C298.951 296.726 303.101 293.611 303.101 289.461C302.589 280.649 296.358 273.907 289.616 268.723C281.839 264.573 274.062 259.388 268.355 252.123C265.762 248.496 264.728 243.822 263.17 239.684C262.647 238.65 261.101 238.65 260.055 239.161C256.939 241.753 259.543 245.903 259.543 249.019C260.055 251.088 261.101 253.169 260.055 255.238C255.905 258.865 249.685 256.796 243.978 257.307C233.085 256.796 222.716 252.122 211.313 253.157C200.42 253.668 185.39 260.934 177.09 250.042C172.94 239.672 173.974 227.222 176.055 216.853C176.055 215.819 175.021 214.784 173.986 214.784C172.952 214.261 171.917 214.784 171.394 215.819C168.802 226.188 167.767 237.592 165.686 248.484C161.536 257.818 154.794 268.188 144.948 272.861C136.137 277.522 126.279 279.08 116.433 279.603C97.7639 280.126 79.618 283.753 68.2025 299.83C67.168 301.388 65.6102 302.422 66.1334 304.503C66.6566 305.014 68.2025 305.538 68.7257 305.014C81.6871 290.495 98.2871 284.788 116.956 285.311C135.102 285.311 152.737 282.195 164.14 266.642C167.256 263.015 168.802 259.388 171.394 255.749C173.463 255.749 175.021 258.342 176.579 259.376C177.09 264.561 172.429 268.188 170.871 272.861C168.802 278.045 166.209 283.753 161.013 286.345C154.794 287.903 150.121 292.053 144.936 295.157C139.228 297.749 132.486 298.783 125.744 297.238C117.444 295.68 106.563 293.611 98.7747 297.238C94.6247 299.83 91.5092 304.491 87.371 306.572C81.6633 308.641 77.0019 313.826 70.2597 313.314C65.5983 312.28 60.4019 309.164 56.2637 313.314C51.6024 317.988 50.0447 325.764 43.8137 328.357C36.5601 332.507 28.7714 328.357 20.9946 327.845C22.0291 320.592 23.0636 313.326 27.7369 308.142C30.8523 307.619 33.4446 307.107 35.5137 305.026C38.6292 302.434 40.6982 298.807 42.7792 295.692C48.9982 291.542 56.7751 288.438 60.9251 281.696C64.0406 274.954 64.0406 269.246 69.2251 263.55L71.8174 262.515L85.302 261.481C91.0097 258.889 95.6711 256.296 100.856 252.669C102.413 251.112 102.925 248.519 102.413 246.45C99.8211 239.708 97.752 235.558 96.1943 228.816C94.6365 221.55 95.6711 214.82 94.6365 206.52C94.1133 205.997 93.602 204.439 92.5675 204.439C83.7561 206.52 74.9329 209.112 65.087 207.554C51.6024 205.997 38.1178 197.185 32.9333 183.701C28.272 172.297 29.3065 155.697 38.1178 146.362C46.4179 136.505 56.2638 128.728 65.5983 120.951C67.1561 119.917 67.1561 117.836 67.6674 116.29C67.6674 114.209 65.5983 112.663 64.0406 112.14C57.8215 110.582 51.0792 112.663 44.8601 110.071C34.491 106.444 26.191 96.5861 25.1565 85.6938C24.6333 81.0205 25.6797 76.8824 28.272 72.7324C35.5493 80.4735 41.2571 86.1694 48.5107 88.2503ZM18.9612 311.222V312.779C16.3689 318.487 14.8112 325.741 12.7421 332.483C8.08076 331.96 4.44207 330.402 0.81526 329.367C-0.219271 328.333 0.81526 327.298 0.81526 326.252C4.96528 322.102 3.93073 317.441 4.96527 311.733C5.48848 308.617 8.59208 306.025 11.1844 304.479C14.8112 305.514 16.8802 308.629 18.9612 311.222ZM41.2571 290.483C38.6648 295.668 35.038 301.376 29.8535 304.479C27.7844 304.991 25.1921 304.991 23.6344 303.956C22.5999 302.922 20.5189 301.887 20.5189 299.806C21.0421 297.737 19.9957 295.145 22.0767 294.098C26.2267 291.506 30.3767 288.914 34.0035 285.798C35.038 285.275 36.5958 284.764 37.6303 285.798C38.6648 286.857 40.7339 288.402 41.2571 290.483ZM290.674 288.402C291.198 290.471 294.301 293.064 292.232 295.145C288.082 298.26 283.932 300.329 278.747 299.295C274.597 296.179 275.121 290.483 271.494 286.845C270.459 283.729 265.786 283.729 266.833 280.626L268.39 279.591C274.098 279.591 279.283 279.591 284.978 278.557C290.151 278.557 288.605 284.776 290.674 288.402Z" fill="white"/>
<path fill-rule="evenodd" clip-rule="evenodd" d="M605.362 206.997C608.478 211.147 610.547 215.297 612.616 219.958C613.127 220.993 612.616 222.027 612.092 223.074C611.581 224.108 610.535 225.155 608.977 224.108C605.35 223.074 605.862 217.366 601.723 217.889C598.608 217.889 596.539 220.482 593.947 222.039C589.285 226.189 583.577 230.339 582.543 236.035C581.508 238.104 582.032 241.22 579.951 242.777C578.916 243.301 577.358 242.266 577.358 241.22C576.835 233.443 579.427 225.666 585.135 220.482C590.843 215.82 594.47 209.589 599.131 204.405C602.247 203.37 604.328 204.928 605.362 206.997ZM606.92 273.374C607.954 275.443 610.035 278.035 608.478 280.627C606.408 282.185 602.77 281.15 600.178 281.15C597.062 279.593 596.551 275.966 596.028 272.339C596.028 271.304 596.028 270.781 597.062 269.747C601.212 269.747 604.839 270.258 606.92 273.374ZM682.108 120.917C683.665 122.986 682.108 125.067 681.073 126.625C673.82 133.367 665.519 140.109 660.335 148.397C658.254 150.99 657.219 154.105 655.674 156.697C655.674 157.209 655.15 157.209 654.639 157.209C653.081 153.059 655.162 148.909 656.197 144.759C659.824 135.424 667.6 126.09 675.901 119.87C677.434 118.848 681.073 118.325 682.108 120.917ZM710.623 88.7751C715.807 92.4019 718.4 99.6674 724.619 101.225C735.511 103.817 746.391 106.41 756.249 111.083C763.503 114.71 769.734 119.894 775.953 125.079C782.172 128.194 789.437 128.194 795.656 130.263C804.991 132.856 812.768 139.598 821.068 145.306C831.96 154.117 847.514 152.559 859.964 158.267C879.667 164.486 895.744 180.052 914.414 189.386C923.748 194.571 938.267 196.64 948.113 190.944C954.332 186.271 958.482 180.575 957.448 172.275C953.821 152.048 931.525 141.156 920.633 124.567C918.563 120.417 917.006 115.233 918.04 110.572C921.667 100.714 932.559 95.5411 941.371 91.3911C948.636 87.7643 957.448 88.7988 964.19 84.6488C966.782 83.0911 968.34 81.022 970.409 79.4643C971.967 79.4643 971.967 81.022 972.478 82.0565C974.547 93.9834 972.478 106.433 962.109 113.164C957.959 115.756 953.298 117.314 948.624 118.348C944.474 119.906 936.698 116.791 937.221 123.533C938.255 126.648 941.371 129.241 943.963 131.31C957.959 142.713 970.409 157.756 972.478 175.39C973.001 189.386 963.667 201.313 951.217 207.021C942.405 210.648 930.99 212.205 921.667 209.613C919.075 209.102 914.925 207.021 913.367 210.136C912.856 213.763 915.448 216.879 915.448 220.505C916.483 227.248 916.483 235.548 914.414 241.767C913.379 246.951 908.194 252.659 912.856 257.844C917.517 264.586 926.34 262.505 933.594 264.063C937.744 264.574 938.779 269.247 940.336 272.363C941.894 275.99 941.894 280.663 943.452 283.766C943.452 291.02 951.752 294.135 955.902 298.797C961.086 304.505 965.236 313.839 974.048 313.316C976.64 319.535 978.709 324.72 979.755 331.985L978.721 333.02C971.467 333.02 962.644 335.101 956.948 329.904C950.729 325.754 949.171 314.862 940.348 317.977C936.721 321.093 931.014 322.127 926.352 320.046C922.202 318.489 919.099 314.339 914.949 312.269C903.022 303.458 887.468 299.308 871.914 302.412C863.103 305.004 855.838 298.785 848.584 294.112C839.249 289.962 836.657 280.116 834.588 271.293L833.03 260.923C833.03 259.889 834.065 258.854 835.111 258.854H836.669C841.854 271.304 852.223 284.777 865.707 289.45C878.145 294.635 889.561 287.893 903.046 290.485C915.496 292.043 925.341 299.819 935.199 307.596C936.234 307.596 936.757 307.085 937.268 306.039V305.527C925.865 291.008 910.299 283.754 891.63 284.789C876.6 287.904 861.034 282.708 852.223 269.747C847.549 262.493 843.923 254.704 842.365 245.893C840.807 236.035 838.738 225.155 835.623 215.82C834.588 215.309 833.554 214.262 832.507 214.786L831.473 216.343C833.03 225.678 835.623 237.605 832.507 247.451C829.915 255.228 822.138 258.343 814.361 258.854C806.584 259.378 799.842 257.82 792.065 257.82C773.919 257.297 758.354 264.562 739.697 262.481C741.254 258.331 744.358 253.67 742.812 248.485C742.301 247.451 740.743 247.451 739.697 247.451C736.07 249.532 736.581 254.193 734.512 256.785C730.362 263.528 723.108 269.235 715.843 270.781C710.658 274.931 705.474 280.639 701.324 285.3C699.766 286.858 699.766 289.45 700.289 292.043C703.916 300.854 714.285 301.9 722.585 304.493C726.735 305.004 730.362 303.458 731.92 299.819C735.547 294.112 736.07 285.3 743.847 284.266H761.481C763.039 284.789 764.073 285.824 764.597 287.381L764.085 289.974C760.458 294.635 758.378 300.866 753.716 303.969C751.124 305.004 746.974 303.969 745.416 306.562C744.382 312.781 742.824 319.012 737.116 322.115C732.966 326.265 726.224 324.196 721.039 322.639C711.705 319.012 701.859 317.454 692.524 314.339C688.374 313.304 686.817 308.119 682.667 307.085C678.517 306.05 673.855 309.154 670.74 305.527C668.671 301.377 667.624 297.75 666.59 293.077C665.032 289.962 663.997 286.858 663.474 283.219C662.963 280.104 663.474 278.035 664.509 275.443L677.47 252.112C678.505 250.554 679.539 248.997 681.097 248.485C684.212 248.997 687.316 250.554 690.431 252.112L689.92 253.67L676.959 273.897C673.843 280.639 676.959 287.893 680.074 293.6C680.586 294.112 681.109 295.158 681.632 294.635C681.121 290.485 680.598 286.335 681.632 282.185C682.667 278.558 684.748 274.408 687.34 271.293L697.709 255.739C698.743 253.147 698.743 248.997 696.674 246.928C692.013 242.266 685.782 241.22 681.632 235.001C672.821 223.597 672.297 210.112 671.263 195.593C671.263 194.559 670.228 193.001 668.671 192.478C667.636 191.967 666.602 193.512 666.078 194.036C663.486 203.37 665.044 214.774 667.636 223.074C669.194 229.816 672.297 236.035 674.89 242.266C675.401 243.301 674.367 244.858 673.332 244.858C666.59 245.382 659.336 244.858 652.594 243.824C643.782 242.266 637.04 235.524 629.775 230.339C628.74 229.828 628.217 230.863 627.706 231.374C629.775 241.22 640.667 246.928 644.294 256.262C646.363 263.516 653.628 269.223 655.186 277.523C655.186 278.558 654.151 280.116 653.117 280.639C650.525 281.162 647.932 279.604 645.863 281.162C645.34 285.312 648.456 289.974 646.375 294.124C643.782 297.75 640.667 302.424 636.006 302.424C627.194 299.308 618.371 295.681 609.036 293.089C602.294 292.566 596.075 293.612 589.856 294.124C584.148 293.089 579.998 287.904 575.337 284.266C573.779 283.754 572.745 283.754 571.71 284.789C561.852 294.647 550.972 305.527 535.93 305.016C534.895 305.016 534.372 303.981 534.372 302.947V301.912C541.114 296.205 548.891 289.985 551.483 281.685C553.552 274.943 559.783 269.759 561.852 263.016C562.375 261.982 561.341 261.459 560.295 260.935L558.737 261.97C551.483 269.747 545.776 277.523 540.591 286.347C534.883 292.055 527.106 295.158 518.818 293.089C517.784 292.566 517.784 291.02 518.295 289.974C549.414 270.781 553.041 237.082 561.329 206.486C567.548 186.259 571.698 164.997 587.775 148.409C611.629 122.486 641.701 106.41 667.636 83.5905C671.786 79.9637 675.413 76.8482 680.598 76.3369C691.442 76.8482 701.288 81.5096 710.623 88.7751ZM994.786 309.154C997.378 312.781 996.344 317.965 997.378 322.115C997.889 325.231 1001.53 327.3 999.97 330.415L989.078 334.042C987.009 334.042 988.044 331.45 987.009 330.415C985.974 324.196 984.417 319.523 982.348 313.304C981.825 309.677 985.463 307.085 988.055 305.004C990.636 305.004 992.717 307.596 994.786 309.154ZM969.386 286.858C973.536 290.485 978.721 293.077 981.825 297.227C982.348 299.296 980.79 301.377 979.755 302.935C978.198 304.493 976.129 305.527 973.536 305.527C970.944 305.527 968.875 303.969 967.317 301.9C964.725 298.274 961.098 294.647 960.064 290.497C962.121 287.893 965.748 283.743 969.386 286.858ZM729.292 282.708C728.781 287.381 727.223 292.043 725.142 296.704C723.584 299.819 719.434 298.773 716.331 298.262C713.215 297.227 708.554 296.704 708.03 292.554C707.507 288.404 709.588 284.777 711.657 281.662C716.319 281.15 721.515 282.185 726.176 281.15C727.734 281.15 729.292 281.673 729.292 282.708Z" fill="white"/>
</svg>
