<svg width="512" height="386" viewBox="0 0 512 386" fill="none" xmlns="http://www.w3.org/2000/svg">
<path d="M258.643 0C264.737 12.2531 270.413 24.5464 276.276 36.7502C285.952 56.8925 295.722 76.9903 305.502 97.0826C319.463 125.764 333.507 154.405 347.445 183.097C360.649 210.278 373.765 237.502 386.917 264.707C391.927 275.071 397.129 285.349 401.782 295.87C402.812 298.199 402.739 301.749 401.735 304.13C390.303 331.235 378.592 358.223 366.966 385.621C366.532 386 366.088 386 365.648 385.709C365.022 383.749 364.512 382.021 363.744 380.418C355.536 363.298 347.23 346.224 339.065 329.084C330.557 311.224 322.194 293.294 313.729 275.414C301.462 249.503 289.172 223.604 276.867 197.711C270.368 184.036 263.816 170.386 256.935 155.983C253.105 164.008 249.618 171.035 246.369 178.169C234.752 203.673 223.277 229.241 211.629 254.731C203.589 272.324 195.281 289.795 187.221 307.379C176.625 330.495 166.111 353.648 155.687 376.841C154.393 379.719 153.861 382.939 152.977 386C152.227 386 151.477 386 150.352 386C147.461 379.993 145.099 373.915 142.394 367.994C137.926 358.213 133.331 348.487 128.614 338.823C124.363 330.115 119.799 321.56 115.531 312.86C113.9 309.535 111.775 306.052 111.563 302.54C111.323 298.578 112.186 294.106 113.95 290.538C126.321 265.512 139.138 240.707 151.634 215.741C161.542 195.948 171.205 176.032 180.959 156.161C190.147 137.444 199.284 118.701 208.495 99.9951C219.565 77.5135 230.735 55.0807 241.772 32.5829C246.951 22.0262 251.92 11.3668 256.981 0.376993C257.421 -5.96046e-08 257.865 0 258.643 0Z" fill="white"/>
<path d="M511.977 6.66667C511.299 7.63956 510.28 8.15382 509.993 8.93671C497.247 43.6614 484.608 78.4251 471.866 113.151C457.466 152.398 442.979 191.614 428.53 230.844C423.475 244.571 418.419 258.298 413.064 272.839C407.751 262.789 402.715 253.522 397.922 244.13C391.849 232.233 386.017 220.214 380.001 208.289C374.692 197.764 369.51 187.162 363.757 176.882C362.004 173.75 362.289 171.192 363.281 168.399C374.803 135.964 386.445 103.572 397.946 71.1293C405.415 50.0632 412.727 28.9415 420.055 7.82622C421.621 3.31399 425.322 4.20398 428.629 4.27724C431.906 4.34985 435.176 4.95583 438.45 4.9652C460.946 5.02962 483.443 4.98328 505.939 5.02891C507.698 5.03248 509.455 5.4646 511.595 5.34877C511.977 5.44445 511.977 5.8889 511.977 6.66667Z" fill="white"/>
<path d="M0.976562 10.3751C25.6319 9.99997 50.2872 10.0043 74.9425 9.98756C76.2575 9.98667 77.6482 10.0519 78.8736 9.66951C83.2119 8.31591 85.9322 10.2258 87.3587 14.0308C93.4812 30.3627 99.3949 46.7728 105.508 63.1083C118.083 96.713 130.534 130.367 143.527 163.81C146.193 170.671 145.71 175.957 142.412 182.435C127.82 211.096 113.814 240.055 99.6044 268.91C99.1259 269.882 98.7392 270.898 97.7141 273.275C96.4211 269.834 95.5642 267.492 94.6639 265.166C88.9178 250.325 82.8843 235.587 77.4704 220.625C67.6699 193.541 58.344 166.285 48.6167 139.173C41.0068 117.963 33.0387 96.8819 25.3236 75.7092C17.7977 55.0558 10.3967 34.3569 2.8997 13.6929C2.70434 13.1544 2.0322 12.7889 1.27948 12.6714C0.976563 12.2501 0.976562 11.5001 0.976562 10.3751Z" fill="white"/>
</svg>
